<ttFont>
          <CharString index="0">
            rmoveto
            -9 -468 264 -326 438 9 406 8 290 245 10 526 9 469 -264 318 -421 -12 -412 -12 -301 -230 -10 -527 rrcurveto
            700 -548 rmoveto
            -249 -122 237 300 391 175 147 212 238 116 -224 -299 -381 -144 -171 -226 hvcurveto
            return
          </CharString>
          <CharString index="1">
            rmoveto
            -370 190 -220 348 177 171 53 61 75 vhcurveto
            -51 177 rlineto
            -33 -60 -152 -26 -81 hhcurveto
            -176 -116 85 194 -13 hvcurveto
            675 hlineto
            8 51 3 77 86 vvcurveto
            -4 332 -213 117 -236 -2 rrcurveto
            -350 -2 -195 -248 -332 vvcurveto
            318 94 rmoveto
            202 22 80 64 115 hhcurveto
            140 43 -99 -167 -10 hvcurveto
            return
          </CharString>
          <CharString index="2">
            rmoveto
            -325 -4 147 -285 402 hhcurveto
            323 237 196 366 5 hvcurveto
            325 5 -147 285 -402 hhcurveto
            -324 -236 -196 -366 -6 hvcurveto
            552 -390 rmoveto
            -163 2 -66 181 199 vvcurveto
            221 71 128 165 -1 vhcurveto
            164 -2 64 -177 -194 vvcurveto
            -229 -70 -130 -165 2 vhcurveto
            return
          </CharString>
          <CharString index="3">
            -184 rmoveto
            -50 vlineto
            28 -13 34 -54 -53 vvcurveto
            -74 -12 -42 -18 -20 vhcurveto
            -26 vlineto
            111 -44 rlineto
            42 15 108 102 162 vvcurveto
            115 -67 70 -42 10 vhcurveto
            return
          </CharString>
          <CharString index="4">
            rmoveto
            -403 -1 153 -266 456 hhcurveto
            410 208 230 426 hvcurveto
            882 -313 -852 vlineto
            -339 -104 -93 -192 -195 -108 77 355 1 vhcurveto
            2 852 rlineto
            -315 hlineto
            return
          </CharString>
          <CharString index="5">
            rmoveto
            99 33 180 161 87 112 -217 131 rcurveline
            -18 -51 -249 -235 -28 -26 rrcurveto
            return
          </CharString>
          <CharString index="6">
            120 -235 rmoveto
            -253 vlineto
            -8 12 110 -11 30 hhcurveto
            31 84 10 11 37 hvcurveto
            152 45 147 135 84 276 355 1170 rcurveline
            -335 hlineto
            -139 -609 -77 -330 -83 330 -173 609 rlineto
            -338 hlineto
            387 -1140 rlineto
            134 hlineto
            -255 -66 -140 0 -99 hhcurveto
            -23 -68 13 7 -22 hvcurveto
            return
          </CharString>
          <CharString index="7">
            -15 hmoveto
            342 hlineto
            100 322 rlineto
            560 hlineto
            102 -322 rlineto
            347 hlineto
            -567 1538 rlineto
            -322 hlineto
            -48 -987 rmoveto
            163 522 44 157 43 -157 165 -522 rlineto
            return
          </CharString>
          <CharString index="8">
            -103 callgsubr
            endchar
          </CharString>
          <CharString index="9">
            rmoveto
            -461 291 -312 469 185 111 45 35 88 vhcurveto
            -1 262 rlineto
            -39 -53 -162 -57 -138 hhcurveto
            -289 -173 231 316 320 191 189 247 206 88 -58 -29 54 hvcurveto
            46 280 rlineto
            18 -96 -97 41 -221 hhcurveto
            -415 -331 -277 -504 hvcurveto
            return
          </CharString>
          <CharString index="10">
            rmoveto
            219 hlineto
            267 293 -154 91 -223 -181 -220 181 -157 -92 rlineto
            return
          </CharString>
          <CharString index="11">
            -101 callgsubr
            endchar
          </CharString>
          <CharString index="12">
            312 809 hlineto
            69 61 97 25 58 1 rrcurveto
            131 4 37 -64 -188 vvcurveto
            -648 312 715 vlineto
            334 -115 118 -241 -8 vhcurveto
            -140 -4 -154 -79 -77 -58 rrcurveto
            return
          </CharString>
          <CharString index="13">
            rmoveto
            -293 49 -197 326 111 138 49 60 84 vhcurveto
            -51 vlineto
            -49 27 -9 49 vhcurveto
            206 1156 -27 callsubr
            return
          </CharString>
          <CharString index="14">
            -106 callsubr
            endchar
          </CharString>
          <CharString index="15">
            rmoveto
            242 246 233 -246 161 90 -283 372 rlineto
            -223 hlineto
            -286 -373 rlineto
            return
          </CharString>
          <CharString index="16">
            526 783 rmoveto
            -127 -67 69 110 145 92 39 116 128 65 -65 -123 -143 -92 -32 -115 hvcurveto
            -216 -714 rmoveto
            63 19 32 23 21 vhcurveto
            -1 20 20 -1 22 hhcurveto
            163 hlineto
            return
          </CharString>
          <CharString index="17">
            rmoveto
            77 -168 171 6 289 136 53 281 rlinecurve
            28 145 -9 178 199 vvcurveto
            909 -320 -914 vlineto
            -207 -4 -170 -28 -114 vhcurveto
            -38 -162 -115 -80 -104 -39 rrcurveto
            return
          </CharString>
          <CharString index="18">
            rmoveto
            222 199 221 -199 165 92 -276 308 rlineto
            -220 hlineto
            return
          </CharString>
          <CharString index="19">
            -106 callgsubr
            hintmask 1100101000000000
            858 -924 -101 callgsubr
            return
          </CharString>
          <CharString index="20">
            rmoveto
            149 137 -117 108 -141 169 -83 142 rlinecurve
            -215 -174 68 -145 255 -199 84 -38 rlinecurve
            endchar
          </CharString>
          <CharString index="21">
            1046 -58 callgsubr
            546 17 callsubr
            hintmask 1010000010000000
            1890 hmoveto
            -62 callgsubr
            hintmask 0001000100000000
            -82 callsubr
            hintmask 1100110000000000
            -1808 -1307 rmoveto
            -88 callsubr
            endchar
          </CharString>
          <CharString index="22">
            -83 callgsubr
            endchar
          </CharString>
          <CharString index="23">
            rmoveto
            304 hlineto
            219 849 45 329 49 -328 214 -850 rlineto
            326 hlineto
            398 1538 rlineto
            -318 hlineto
            -173 -894 -51 -354 -62 354 -234 894 rlineto
            -284 hlineto
            -220 -894 -61 -370 -53 370 -188 894 rlineto
            -319 hlineto
            return
          </CharString>
          <CharString index="24">
            rmoveto
            65 50 139 159 241 vvcurveto
            185 -88 126 -97 35 vhcurveto
            -169 -124 rlineto
            -71 vlineto
            39 -21 50 -89 -112 vvcurveto
            -92 -26 -126 -43 -50 vhcurveto
            -28 vlineto
            return
          </CharString>
          <CharString index="25">
            155 -77 callgsubr
            return
          </CharString>
          <CharString index="26">
            1530 -16 244 -228 242 -221 -21 1291 231 -224 240 -97 81 0 -4 callsubr
            154 1181 -16 callgsubr
            hintmask 0010100100000000
            -8 callsubr
            -47 callsubr
            hintmask 1000100110000000
            -61 callsubr
            hintmask 1000100110000000
            -64 callgsubr
            1139 -246 1 callgsubr
            hintmask 0101000001000000
            672 1106 rlineto
            hintmask 0100010001000000
            -48 callsubr
            return
          </CharString>
          <CharString index="27">
            1332 -16 244 -228 216 -195 -21 923 217 -95 95 158 30 callgsubr
            176 969 -16 callgsubr
            hintmask 0010010100000000
            -8 callsubr
            -47 callsubr
            hintmask 1000010110000000
            -61 callsubr
            hintmask 1000010110000000
            -64 callgsubr
            1121 -163 -53 callgsubr
            hintmask 0101000001000000
            484 745 rlineto
            hintmask 0100100001000000
            -59 callgsubr
            return
          </CharString>
          <CharString index="28">
            rmoveto
            146 125 -27 26 -250 235 -18 51 rlinecurve
            -217 -131 79 -109 197 -167 90 -30 rlinecurve
            return
          </CharString>
          <CharString index="29">
            318 575 hlineto
            86 64 1 3 51 hvcurveto
            147 -2 31 -289 86 -178 30 -64 8 -20 18 -26 rrcurveto
            354 hlineto
            -63 110 -100 173 -60 248 -124 104 rlinecurve
            159 64 94 133 246 vvcurveto
            359 -263 101 -285 vhcurveto
            return
          </CharString>
          <CharString index="30">
            329 hintmask 11010100
            -75 callgsubr
            return
          </CharString>
          <CharString index="31">
            -105 callgsubr
            endchar
          </CharString>
          <CharString index="32">
            -72 callsubr
            endchar
          </CharString>
          <CharString index="33">
            rmoveto
            52 60 68 197 173 vvcurveto
            135 -23 88 -48 45 vhcurveto
            -215 -70 -12 -64 rlineto
            32 -33 27 -93 -91 vvcurveto
            1 -110 -10 -125 -13 -61 8 -23 rcurveline
            endchar
          </CharString>
          <CharString index="34">
            rmoveto
            -93 callgsubr
            return
          </CharString>
          <CharString index="35">
            993 -73 callgsubr
            return
          </CharString>
          <CharString index="36">
            224 -16 244 -207 -21 694 201 403 240 -16 -20 hstemhm
            69 777 -658 321 609 336 hintmask 00100100
            69 694 rmoveto
            777 201 -777 hlineto
            hintmask 00000000
            119 -895 rmoveto
            -47 callsubr
            hintmask 01010010
            -70 callsubr
            hintmask 10010011
            -65 callsubr
            hintmask 10001010
            -85 callgsubr
            hintmask 10010011
            -73 -78 4 14 -53 hvcurveto
            endchar
          </CharString>
          <CharString index="37">
            469 -4 301 302 519 vvcurveto
            466 -236 271 -510 vhcurveto
            return
          </CharString>
          <CharString index="38">
            rmoveto
            -244 130 -201 265 1 vhcurveto
            224 2 205 160 290 vvcurveto
            248 -120 200 -275 -3 vhcurveto
            -224 -2 -205 -161 -290 vvcurveto
            249 10 rmoveto
            153 59 94 106 102 58 -103 -154 -153 -58 -93 -106 -102 -59 105 151 vhcurveto
            return
          </CharString>
          <CharString index="39">
            rmoveto
            177 166 76 204 2 hvcurveto
            184 1 -129 90 -208 hhcurveto
            -167 -176 -66 -204 -4 hvcurveto
            -181 -3 126 -103 215 hhcurveto
            3 152 rmoveto
            -92 -65 47 84 103 74 23 83 -1 hvcurveto
            91 -1 68 -42 -89 vvcurveto
            -104 -64 -21 -95 1 vhcurveto
            endchar
          </CharString>
          <CharString index="40">
            1576 -97 callsubr
            return
          </CharString>
          <CharString index="41">
            -670 21 40 callgsubr
            148 -21 callsubr
            hintmask 11001000
            174 hmoveto
            -62 callgsubr
            hintmask 00110000
            -82 callsubr
            endchar
          </CharString>
          <CharString index="42">
            -166 -114 -16 -89 hhcurveto
            -151 hlineto
            321 -1276 rmoveto
            return
          </CharString>
          <CharString index="43">
            74 -16 248 -229 -21 23 -35 callsubr
            hstemhm
            181 312 376 -30 callsubr
            hintmask 00111100
            181 -371 rmoveto
            282 hlineto
            -30 423 rlineto
            -51 57 78 -17 100 hhcurveto
            145 80 79 57 39 hvcurveto
            hintmask 01011100
            -98 4 57 -40 90 hhcurveto
            142 98 84 21 14 hvcurveto
            hintmask 10011100
            -31 145 rlineto
            -22 -37 -32 -5 -13 hhcurveto
            -22 -21 14 62 hvcurveto
            859 -312 -840 vlineto
            -38 -44 -69 -30 -59 hhcurveto
            -149 -55 70 182 hvcurveto
            656 14 callsubr
            endchar
          </CharString>
          <CharString index="44">
            201 hmoveto
            320 -44 callgsubr
            -320 hlineto
            return
          </CharString>
          <CharString index="45">
            21 -21 -44 callgsubr
            -20 return
          </CharString>
          <CharString index="46">
            -70 callsubr
            hintmask 1000001100000000
            -65 callsubr
            return
          </CharString>
          <CharString index="47">
            168 31 callsubr
            99 24 57 1 rrcurveto
            129 4 43 -65 -186 vvcurveto
            -648 312 710 vlineto
            332 -126 125 -252 -8 vhcurveto
            -125 -4 -144 -68 -79 -66 17 203 rcurveline
            return
          </CharString>
          <CharString index="48">
            -25 -516 184 332 243 166 191 314 226 -177 193 return
          </CharString>
          <CharString index="49">
            rmoveto
            267 hlineto
            34 1225 rlineto
            -347 hlineto
            -25 -1609 rmoveto
            -110 1 78 -83 107 hhcurveto
            114 90 98 115 -1 hvcurveto
            108 -1 -68 84 -117 hhcurveto
            -111 -94 -99 -113 2 hvcurveto
            return
          </CharString>
          <CharString index="50">
            -107 -16 211 335 176 218 238 return
          </CharString>
          <CharString index="51">
            -140 -16 232 279 173 266 222 return
          </CharString>
          <CharString index="52">
            809 vlineto
            69 61 101 25 56 1 rrcurveto
            130 3 34 -65 -186 vvcurveto
            -648 312 707 vlineto
            37 -2 35 -3 32 vhcurveto
            57 45 89 39 78 1 rrcurveto
            135 3 31 -64 -186 vvcurveto
            -649 312 717 vlineto
            334 -135 111 -236 -2 vhcurveto
            -164 -1 -152 -83 -70 -54 -57 101 -97 41 -140 -4 -140 -4 -154 -80 -77 -58 rrcurveto
            return
          </CharString>
          <CharString index="53">
            rrcurveto
            -127 6 129 -73 126 hhcurveto
            84 88 25 43 58 hvcurveto
            return
          </CharString>
          <CharString index="54">
            hhcurveto
            -153 -104 -100 -126 -44 hvcurveto
            return
          </CharString>
          <CharString index="55">
            6 -38 -40 4 -44 hhcurveto
            -324 -236 -196 -366 -6 hvcurveto
            -3 -246 83 -222 214 -95 rrcurveto
            95 268 rmoveto
            -46 72 -20 105 110 vvcurveto
            221 71 128 165 -1 vhcurveto
            18 18 -3 -4 16 hvcurveto
            -117 -714 rmoveto
            224 633 rlineto
            48 -71 21 -104 -110 vvcurveto
            -229 -70 -130 -165 2 vhcurveto
            -21 -19 4 5 -18 hvcurveto
            return
          </CharString>
          <CharString index="56">
            168 64 rmoveto
            -25 34 239 -62 208 hhcurveto
            354 242 256 379 -2 callgsubr
            -169 -96 -68 -52 -54 hvcurveto
            8 188 rlineto
            437 14 callsubr
            312 -1429 rmoveto
            620 -35 callgsubr
            -252 -2 -112 -142 -148 hhcurveto
            -89 -61 11 28 -26 hvcurveto
            return
          </CharString>
          <CharString index="57">
            -77 callgsubr
            endchar
          </CharString>
          <CharString index="58">
            -95 callgsubr
            endchar
          </CharString>
          <CharString index="59">
            -38 81 rlineto
            -1067 -231 668 hlineto
            -58 -81 -686 -1126 rlineto
            return
          </CharString>
          <CharString index="60">
            154 hlineto
            92 108 -15 -1 142 hvcurveto
            return
          </CharString>
          <CharString index="61">
            -20 -165 rlineto
            -16 25 97 -12 58 hhcurveto
            134 115 72 171 6 hvcurveto
            return
          </CharString>
          <CharString index="62">
            hstemhm
            188 318 return
          </CharString>
          <CharString index="63">
            318 469 hlineto
            157 177 101 -146 126 -200 104 -187 rlinecurve
            35 -62 10 -25 18 -26 rrcurveto
            354 hlineto
            -65 110 -124 214 -252 418 -93 136 rlinecurve
            514 644 rlineto
            -350 hlineto
            -535 -674 rlineto
            674 -318 vlineto
            endchar
          </CharString>
          <CharString index="64">
            195 -16 254 1284 -20 return
          </CharString>
          <CharString index="65">
            866 242 -548 1280 -318 hlineto
            return
          </CharString>
          <CharString index="66">
            858 -924 -96 callsubr
          </CharString>
          <CharString index="67">
            rmoveto
            246 214 hlineto
            -7 188 151 -6 rlineto
            222 237 -222 hlineto
            -151 -7 7 187 rlineto
            217 -246 -217 vlineto
            6 -187 -162 7 rlineto
            -209 -237 209 hlineto
            162 6 -6 -188 rlineto
            endchar
          </CharString>
          <CharString index="68">
            -142 -507 252 276 -47 callgsubr
            return
          </CharString>
          <CharString index="69">
            1252 -100 callgsubr
            return
          </CharString>
          <CharString index="70">
            -274 -310 rlineto
            endchar
          </CharString>
          <CharString index="71">
            rmoveto
            -256 88 -99 227 156 131 59 49 55 vhcurveto
            return
          </CharString>
          <CharString index="72">
            -21 1156 -20 return
          </CharString>
          <CharString index="73">
            320 1278 434 244 -1190 -244 436 hlineto
            endchar
          </CharString>
          <CharString index="74">
            -608 -62 callsubr
            return
          </CharString>
          <CharString index="75">
            312 213 hlineto
            -5 129 122 133 296 -475 rlineto
            355 hlineto
            -447 696 407 444 rlineto
            -353 hlineto
            -386 -450 11 287 rlineto
            684 14 callsubr
            endchar
          </CharString>
          <CharString index="76">
            86 -64 -110 29 -159 hhcurveto
            -231 -193 -94 -25 -44 hvcurveto
            69 -200 rlineto
            32 54 156 49 116 hhcurveto
            144 53 -40 -117 hvcurveto
            -61 vlineto
            -132 -187 -17 -52 -117 hvcurveto
            return
          </CharString>
          <CharString index="77">
            312 hintmask 00000000
            return
          </CharString>
          <CharString index="78">
            rmoveto
            -35 57 201 -55 199 hhcurveto
            return
          </CharString>
          <CharString index="79">
            -27 callgsubr
            537 -21 return
          </CharString>
          <CharString index="80">
            -312 hlineto
            return
          </CharString>
          <CharString index="81">
            51 -3 66 -113 -93 vvcurveto
            -107 -51 -107 -53 -32 vhcurveto
            -26 vlineto
            106 -98 rlineto
            158 55 129 202 227 vvcurveto
            116 -59 155 -125 47 vhcurveto
            -222 -136 rlineto
            return
          </CharString>
          <CharString index="82">
            hstemhm
            91 1197 -1166 301 return
          </CharString>
          <CharString index="83">
            21 -21 924 216 return
          </CharString>
          <CharString index="84">
            345 hlineto
            177 376 rlineto
            449 -376 993 251 -675 412 468 241 -468 374 610 244 -1133 hlineto
            -139 -924 rmoveto
            return
          </CharString>
          <CharString index="85">
            -219 -92 -16 -93 hhcurveto
            -147 hlineto
            318 -718 rmoveto
            return
          </CharString>
          <CharString index="86">
            379 -353 312 return
          </CharString>
          <CharString index="87">
            rmoveto
            -41 62 170 -47 166 hhcurveto
            return
          </CharString>
          <CharString index="88">
            -516 205 -184 -21 return
          </CharString>
          <CharString index="89">
            75 -816 rlineto
            312 hlineto
            -182 -44 callgsubr
            rlineto
            -434 hlineto
            -183 -800 -58 -336 -77 336 -203 800 rlineto
            -447 hlineto
            endchar
          </CharString>
          <CharString index="90">
            -48 callsubr
            endchar
          </CharString>
          <CharString index="91">
            -661 vmoveto
            432 vlineto
            5 29 126 2 65 hhcurveto
            203 90 -68 -156 -180 -101 -61 -191 -65 -127 3 23 -29 hvcurveto
            endchar
          </CharString>
          <CharString index="92">
            -93 callgsubr
            endchar
          </CharString>
          <CharString index="93">
            -148 -32 157 -209 hhcurveto
            -163 -137 -140 -80 -25 hvcurveto
            return
          </CharString>
          <CharString index="94">
            hstemhm
            -11 callgsubr
            return
          </CharString>
          <CharString index="95">
            hstemhm
            162 312 return
          </CharString>
          <CharString index="96">
            323 237 196 366 5 hvcurveto
            4 247 -84 224 -218 93 80 225 rcurveline
            -125 32 -79 -221 rlineto
            return
          </CharString>
          <CharString index="97">
            -123 -16 249 1067 238 return
          </CharString>
          <CharString index="98">
            -222 0 216 707 217 -95 95 return
          </CharString>
          <CharString index="99">
            188 hmoveto
            return
          </CharString>
          <CharString index="100">
            -8 callsubr
            318 651 593 -651 314 -44 callgsubr
            -314 -632 -593 632 -318 hlineto
            return
          </CharString>
          <CharString index="101">
            -5 79 156 -9 131 hhcurveto
            480 143 200 275 197 -130 131 -179 20 hvcurveto
            return
          </CharString>
          <CharString index="102">
            583 vlineto
            48 10 62 2 53 2 rrcurveto
            198 8 106 -105 -193 vvcurveto
            -251 -146 -64 -155 vhcurveto
            return
          </CharString>
          <CharString index="103">
            -20 hstemhm
            188 321 609 336 return
          </CharString>
          <CharString index="104">
            643 5 -21 1538 -20 return
          </CharString>
          <CharString index="105">
            -31 -16 246 1056 252 return
          </CharString>
          <CharString index="106">
            30 644 245 hstem
            255 850 vstem
            255 644 rmoveto
            850 245 -850 hlineto
            endchar
          </CharString>
          <CharString index="107">
            5 callgsubr
            endchar
          </CharString>
          <CharString index="108">
            593 1530 rlineto
            -247 hlineto
            -769 -903 rmoveto
            223 2 205 160 289 vvcurveto
            return
          </CharString>
          <CharString index="109">
            105 21 11 callsubr
            return
          </CharString>
          <CharString index="110">
            hstemhm
            139 312 -312 993 return
          </CharString>
          <CharString index="111">
            398 vlineto
            10 23 105 3 35 hhcurveto
            183 105 -52 -127 -172 -76 -69 -184 hvcurveto
            return
          </CharString>
          <CharString index="112">
            rmoveto
            234 hlineto
            176 636 rlineto
            -301 hlineto
            return
          </CharString>
          <CharString index="113">
            -26 -36 -87 -22 -54 hhcurveto
            return
          </CharString>
          <CharString index="114">
            322 634 442 245 -442 399 601 244 -923 hlineto
            endchar
          </CharString>
          <CharString index="115">
            248 -119 200 -276 -3 vhcurveto
            -223 -2 -205 -161 -289 vvcurveto
            return
          </CharString>
          <CharString index="116">
            -245 130 -201 265 2 vhcurveto
            14 197 rmoveto
            -102 -58 106 150 hvcurveto
            return
          </CharString>
          <CharString index="117">
            rmoveto
            921 216 -921 hlineto
            -728 vmoveto
            921 216 -921 hlineto
            endchar
          </CharString>
          <CharString index="118">
            -21 579 219 503 237 -16 -20 return
          </CharString>
          <CharString index="119">
            168 312 return
          </CharString>
          <CharString index="120">
            476 16 rmoveto
            -17 46 64 -15 79 hhcurveto
            347 233 249 379 hvcurveto
            return
          </CharString>
          <CharString index="121">
            -312 vlineto
            return
          </CharString>
          <CharString index="122">
            rmoveto
            817 241 hlineto
            -448 -20 rlineto
            return
          </CharString>
          <CharString index="123">
            -16 235 -214 -21 940 216 return
          </CharString>
          <CharString index="124">
            312 457 -21 callsubr
            return
          </CharString>
          <CharString index="125">
            379 -344 312 return
          </CharString>
          <CharString index="126">
            225 -92 222 hstemhm
            return
          </CharString>
          <CharString index="127">
            21 38 callgsubr
            return
          </CharString>
          <CharString index="128">
            hstemhm
            95 998 return
          </CharString>
          <CharString index="129">
            92 -14 220 -185 -21 671 213 420 233 -14 -20 return
          </CharString>
          <CharString index="130">
            -52 -115 1 5 -42 hvcurveto
            return
          </CharString>
          <CharString index="131">
            609 0 251 125 222 65 241 374 244 return
          </CharString>
          <CharString index="132">
            11 callgsubr
            187 358 hstemhm
            return
          </CharString>
          <CharString index="133">
            rmoveto
            295 1 65 816 36 466 113 -466 rlineto
            return
          </CharString>
          <CharString index="134">
            -145 -136 -16 -168 hhcurveto
            -96 hlineto
            318 -812 rmoveto
            return
          </CharString>
          <CharString index="135">
            29 21 -21 461 241 605 231 -16 -20 return
          </CharString>
          <CharString index="136">
            -28 -16 220 -188 -21 939 222 -10 -20 return
          </CharString>
          <CharString index="137">
            hstemhm
            95 327 437 312 return
          </CharString>
          <CharString index="138">
            hmoveto
            312 809 hlineto
            69 61 return
          </CharString>
          <CharString index="139">
            -531 -191 170 1571 187 hstem
            return
          </CharString>
          <CharString index="140">
            -472 -24 callsubr
            323 220 return
          </CharString>
          <CharString index="141">
            -21 1278 244 return
          </CharString>
          <CharString index="142">
            153 58 94 106 102 59 -102 -155 vhcurveto
            return
          </CharString>
          <CharString index="143">
            -770 940 796 hstem
            return
          </CharString>
          <CharString index="144">
            -89 -62 callsubr
            return
          </CharString>
          <CharString index="145">
            hstemhm
            115 845 return
          </CharString>
          <CharString index="146">
            -20 hstem
            188 318 vstem
            -8 callsubr
            return
          </CharString>
          <CharString index="147">
            134 115 72 171 6 hvcurveto
            3 return
          </CharString>
          <CharString index="148">
            -404 21 -21 1145 -20 34 -20 return
          </CharString>
          <CharString index="149">
            hstemhm
            102 322 return
          </CharString>
        <CharString name=".notdef">
          552 0 219 hstem
          233 1416 vstem
          233 hmoveto
          1416 1416 -1416 hlineto
          230 -1053 rmoveto
          358 342 -359 363 123 125 357 -368 352 366 128 -124 -363 -358 363 -368 -122 -122 -362 368 -347 -368 rlineto
          endchar
        </CharString>
        <CharString name="A">
          -40 callgsubr
          hstem
          -15 1451 vstem
          -100 callsubr
          endchar
        </CharString>
        <CharString name="AE">
          24 callsubr
          -198 198 hstemhm
          860 318 hintmask 00000000
          hintmask 11110100
          -111 hmoveto
          -23 callsubr
          hintmask 11101100
          42 callgsubr
        </CharString>
        <CharString name="AEacute">
          24 callsubr
          167 -21 hstemhm
          860 318 -273 512 hintmask 00001010
          1051 -72 callgsubr
          hintmask 00000000
          -1016 -1668 rmoveto
          -23 callsubr
          hintmask 11110100
          42 callgsubr
        </CharString>
        <CharString name="Aacute">
          -40 callgsubr
          171 -21 4 callgsubr
          -867 512 hintmask 11101000
          -100 callsubr
          hintmask 00010100
          -199 992 -102 callsubr
          endchar
        </CharString>
        <CharString name="Abreve">
          -40 callgsubr
          95 203 4 callgsubr
          -1090 727 hintmask 11101000
          -100 callsubr
          hintmask 00010100
          -204 1062 -89 callgsubr
          endchar
        </CharString>
        <CharString name="Acircumflex">
          -40 callgsubr
          154 -21 4 callgsubr
          -1109 770 hintmask 11101000
          -100 callsubr
          hintmask 00000000
          -425 1008 -89 callsubr
          hintmask 00010100
          -37 callsubr
        </CharString>
        <CharString name="Adieresis">
          -40 callgsubr
          96 346 4 callgsubr
          -1164 878 hintmask 11101000
          -100 callsubr
          hintmask 00010100
          50 1063 -49 callsubr
        </CharString>
        <CharString name="Agrave">
          -40 callgsubr
          171 -21 4 callgsubr
          -1093 512 hintmask 11101000
          -100 callsubr
          hintmask 00010100
          -205 992 -39 callgsubr
        </CharString>
        <CharString name="Amacron">
          -40 callgsubr
          168 206 4 callgsubr
          -1017 591 hintmask 11101000
          -100 callsubr
          hintmask 00010100
          -495 1135 -52 callgsubr
          endchar
        </CharString>
        <CharString name="Aogonek">
          91 41 callgsubr
          322 229 987 -20 4 callgsubr
          hintmask 00000000
          hintmask 01111100
          -15 hmoveto
          342 hlineto
          100 322 rlineto
          560 hlineto
          102 -322 rlineto
          69 hlineto
          -106 -58 -119 -108 9 -150 -54 callsubr
          hintmask 10111100
          -57 callgsubr
          -7 94 84 63 101 66 rrcurveto
          71 hlineto
          -567 1538 rlineto
          -322 hlineto
          -48 -987 rmoveto
          163 522 44 157 43 -157 165 -522 rlineto
          endchar
        </CharString>
        <CharString name="Aring">
          91 21 -21 322 229 864 152 -29 -20 305 146 4 callgsubr
          -1069 21 callgsubr
          hintmask 11010100
          -100 callsubr
          hintmask 00101011
          -209 864 -68 callsubr
        </CharString>
        <CharString name="Atilde">
          -40 callgsubr
          84 -28 callgsubr
          -15 1451 -1159 876 hintmask 11100010
          -100 callsubr
          hintmask 00000000
          -512 1082 -41 callgsubr
          hintmask 00001101
          -99 callgsubr
          hintmask 00010001
          -103 -29 130 -162 -26 callgsubr
        </CharString>
        <CharString name="B">
          22 callsubr
          hstemhm
          188 315 451 303 -241 322 hintmask 00000000
          hintmask 01101100
          -8 callsubr
          161 hlineto
          hintmask 10101101
          -6 callsubr
          hintmask 10110110
          2 callgsubr
          hintmask 10101100
          -154 1 rlineto
          315 -630 rmoveto
          hintmask 10110110
          4 callsubr
          hintmask 10101100
          -41 -109 2 7 -41 hvcurveto
          hintmask 10101101
          -16 callsubr
        </CharString>
        <CharString name="C">
          -2 callsubr
          hstem
          100 328 vstem
          100 757 -98 callsubr
          endchar
        </CharString>
        <CharString name="CR">
          43 callgsubr
        </CharString>
        <CharString name="Cacute">
          -2 callsubr
          151 -21 hstemhm
          100 328 262 512 hintmask 11010000
          100 757 -98 callsubr
          hintmask 00101000
          736 786 -102 callsubr
          endchar
        </CharString>
        <CharString name="Ccaron">
          -2 callsubr
          38 384 hstemhm
          100 328 28 754 hintmask 11010000
          100 757 -98 callsubr
          hintmask 00101000
          624 819 -97 callsubr
          endchar
        </CharString>
        <CharString name="Ccedilla">
          -31 -464 179 293 -21 1299 252 hstem
          100 328 326 217 vstem
          556 -271 rmoveto
          -46 callsubr
          3 74 -11 81 -25 53 140 11 91 36 75 30 -1 262 rcurveline
          -39 -53 -162 -57 -138 hhcurveto
          -289 -173 231 316 320 191 189 247 206 88 -58 -29 54 hvcurveto
          46 280 rlineto
          18 -96 -97 41 -221 hhcurveto
          -415 -331 -277 -504 -421 242 -297 399 -48 hvcurveto
          11 -29 6 -39 -4 -58 -38 callgsubr
          endchar
        </CharString>
        <CharString name="Ccircumflex">
          -2 callsubr
          134 -21 hstemhm
          100 328 20 770 hintmask 11010000
          100 757 -98 callsubr
          hintmask 00000000
          510 802 -89 callsubr
          hintmask 00101000
          -37 callsubr
        </CharString>
        <CharString name="Cdotaccent">
          -2 callsubr
          75 345 hstemhm
          100 328 229 361 hintmask 00101000
          829 1613 -96 callgsubr
          hintmask 11010000
          -729 -856 -98 callsubr
          endchar
        </CharString>
        <CharString name="D">
          -7 callgsubr
          hstemhm
          188 321 609 336 hintmask 00000000
          hintmask 01101000
          -8 callsubr
          -47 callsubr
          hintmask 10101100
          -70 callsubr
          hintmask 10011000
          -65 callsubr
          hintmask 10101100
          -85 callgsubr
          hintmask 10011000
          -73 -78 4 14 -53 hvcurveto
          endchar
        </CharString>
        <CharString name="Dcaron">
          -7 callgsubr
          74 384 hstemhm
          188 321 -119 754 -26 336 hintmask 00001010
          658 -67 callsubr
          hintmask 00000000
          -202 -1868 rmoveto
          -47 callsubr
          hintmask 01100100
          -70 callsubr
          hintmask 10100101
          -65 callsubr
          hintmask 10010100
          -85 callgsubr
          hintmask 10100101
          -73 -78 4 14 -53 hvcurveto
          endchar
        </CharString>
        <CharString name="Dcroat">
          -71 callsubr
        </CharString>
        <CharString name="Delta">
          -37 callgsubr
        </CharString>
        <CharString name="E">
          -49 callgsubr
          hstem
          188 318 vstem
          -8 callsubr
          -75 callsubr
        </CharString>
        <CharString name="Eacute">
          -49 callgsubr
          167 -21 -45 callsubr
          52 512 hintmask 00010100
          704 -72 callgsubr
          hintmask 11101000
          -370 -1668 rmoveto
          -75 callsubr
        </CharString>
        <CharString name="Ebreve">
          -49 callgsubr
          91 203 -45 callsubr
          -171 727 hintmask 00010100
          699 1613 -89 callgsubr
          hintmask 11101000
          -511 -1613 rmoveto
          -75 callsubr
        </CharString>
        <CharString name="Ecaron">
          -49 callgsubr
          54 384 -45 callsubr
          -182 754 hintmask 00010100
          592 -67 callsubr
          hintmask 11101000
          -136 -1868 rmoveto
          -75 callsubr
        </CharString>
        <CharString name="Ecircumflex">
          -49 callgsubr
          150 -21 -45 callsubr
          -190 770 hintmask 11101000
          -8 callsubr
          -72 callsubr
          hintmask 00000000
          290 37 -89 callsubr
          hintmask 00010100
          -37 callsubr
        </CharString>
        <CharString name="Edieresis">
          -49 callgsubr
          92 346 -45 callsubr
          -245 878 hintmask 00010100
          953 1614 -95 callgsubr
          hintmask 11101000
          -242 -1614 rmoveto
          -75 callsubr
        </CharString>
        <CharString name="Edotaccent">
          -49 callgsubr
          91 345 -45 callsubr
          19 361 hintmask 00010100
          697 1613 -96 callgsubr
          hintmask 11101000
          -509 -1613 rmoveto
          -75 callsubr
        </CharString>
        <CharString name="Egrave">
          -49 callgsubr
          167 -21 -45 callsubr
          -174 512 hintmask 00010100
          698 1543 -79 callsubr
          hintmask 11101000
          -510 -1543 rmoveto
          -75 callsubr
        </CharString>
        <CharString name="Emacron">
          -49 callgsubr
          164 206 -45 callsubr
          -98 591 hintmask 00010100
          408 1686 -52 callgsubr
          hintmask 11101000
          -220 -1892 rmoveto
          -75 callsubr
        </CharString>
        <CharString name="Eng">
          290 -62 callsubr
          hstem
          187 314 615 315 vstem
          -8 callsubr
          314 741 hlineto
          -38 351 115 -231 526 -842 rlineto
          -140 -193 -146 -171 -49 vhcurveto
          70 -125 269 12 257 162 63 230 rlinecurve
          38 134 -7 125 187 vvcurveto
          1113 -315 -757 vlineto
          35 -361 -112 223 -544 895 rlineto
          -308 hlineto
          endchar
        </CharString>
        <CharString name="Eogonek">
          -76 -19 callsubr
          516 251 408 241 378 244 -45 callsubr
          hintmask 00000000
          hintmask 01111100
          -8 callsubr
          724 hlineto
          -106 -58 -119 -108 9 -150 -54 callsubr
          hintmask 10111100
          -57 callgsubr
          -7 94 84 63 101 66 rrcurveto
          62 -73 callgsubr
          endchar
        </CharString>
        <CharString name="Eth">
          -71 callsubr
        </CharString>
        <CharString name="Euro">
          174 -28 229 271 192 193 192 253 236 hstem
          92 1288 vstem
          92 472 rmoveto
          213 hlineto
          -315 70 216 -185 357 hhcurveto
          285 61 66 12 86 hvcurveto
          -60 234 rlineto
          -46 -67 -126 -37 -132 hhcurveto
          -202 -102 103 168 -46 hvcurveto
          452 192 -482 hlineto
          -2 40 -1 41 44 vvcurveto
          23 0 23 2 22 vhcurveto
          532 192 -497 hlineto
          175 60 128 78 161 hhcurveto
          166 -1 65 -25 72 -42 53 243 rcurveline
          -85 19 -78 50 -222 -8 -321 -12 -233 -165 -92 -312 rrcurveto
          -194 -192 157 hlineto
          -4 -44 -2 -45 -48 vvcurveto
          -19 0 -19 1 -18 vhcurveto
          -189 hlineto
          endchar
        </CharString>
        <CharString name="F">
          34 callgsubr
          hstem
          188 322 vstem
          -8 callsubr
          7 callsubr
        </CharString>
        <CharString name="G">
          -48 callgsubr
          hstem
          100 331 639 302 vstem
          100 753 -76 callsubr
        </CharString>
        <CharString name="Gbreve">
          -48 callgsubr
          76 203 hstemhm
          100 331 45 727 -133 302 hintmask 00010100
          840 1614 -89 callgsubr
          hintmask 11101010
          -740 -861 -76 callsubr
        </CharString>
        <CharString name="Gcaron">
          -48 callgsubr
          39 384 hstemhm
          100 331 34 754 -149 302 hintmask 11101010
          100 753 -105 callgsubr
          hintmask 00010100
          633 824 -97 callsubr
          endchar
        </CharString>
        <CharString name="Gcircumflex">
          -48 callgsubr
          135 -21 hstemhm
          100 331 26 770 -157 302 hintmask 11101010
          100 753 -105 callgsubr
          hintmask 00000000
          519 807 -89 callsubr
          hintmask 00010100
          -37 callsubr
        </CharString>
        <CharString name="Gcommaaccent">
          164 -27 callgsubr
          500 244 349 243 466 252 hstemhm
          100 331 326 231 82 302 hintmask 00000000
          hintmask 11000010
          695 -104 callsubr
          hintmask 00111101
          -779 839 -76 callsubr
        </CharString>
        <CharString name="Gdotaccent">
          -48 callgsubr
          76 345 hstemhm
          100 331 235 361 43 302 hintmask 00010100
          838 -42 callgsubr
          hintmask 11101010
          -738 -861 -76 callsubr
        </CharString>
        <CharString name="Gtilde">
          -48 callgsubr
          65 -28 callgsubr
          100 331 -24 876 -213 302 hintmask 1110001010000000
          100 753 -105 callgsubr
          -16 callgsubr
          432 881 -41 callgsubr
          hintmask 0000110100000000
          -99 callgsubr
          hintmask 0001000100000000
          -103 -29 130 -162 -26 callgsubr
        </CharString>
        <CharString name="H">
          271 21 -21 651 239 632 -20 hstem
          188 318 593 314 vstem
          -7 callsubr
          endchar
        </CharString>
        <CharString name="Hbar">
          291 21 -21 621 233 191 192 285 -20 hstem
          188 322 601 322 vstem
          -8 callsubr
          322 621 601 -621 322 1045 166 192 -166 285 -322 -285 -601 285 -322 -285 -164 -192 164 hlineto
          322 -191 rmoveto
          191 601 -191 vlineto
          endchar
        </CharString>
        <CharString name="Hcircumflex">
          273 21 -21 651 239 632 -20 170 -21 -45 callsubr
          -90 770 -87 314 hintmask 11101010
          -7 callsubr
          hintmask 00000000
          390 37 -89 callsubr
          hintmask 00010100
          -37 callsubr
        </CharString>
        <CharString name="I">
          -33 callsubr
          hstem
          201 320 vstem
          -63 callsubr
          endchar
        </CharString>
        <CharString name="I.uc">
          -608 -8 callgsubr
          186 361 -346 320 hintmask 11001000
          -63 callsubr
          hintmask 00110000
          157 91 -96 callgsubr
          endchar
        </CharString>
        <CharString name="IJ">
          190 -62 callsubr
          hstemhm
          201 320 480 320 hintmask 11100000
          -63 callsubr
          hintmask 01010000
          511 -1686 -90 callsubr
          endchar
        </CharString>
        <CharString name="IJ_acutecomb">
          190 -62 callsubr
          206 -21 22 -21 hstemhm
          201 320 446 512 -478 320 hintmask 11101010
          365 1562 -102 callsubr
          493 -1851 -90 callsubr
          -511 164 rmoveto
          320 -44 callgsubr
          -320 hlineto
          hintmask 00010100
          912 41 -102 callsubr
          endchar
        </CharString>
        <CharString name="Iacute">
          -608 16 callgsubr
          201 320 -302 512 hintmask 11010000
          -63 callsubr
          hintmask 00101000
          164 21 -102 callsubr
          endchar
        </CharString>
        <CharString name="Ibreve">
          -33 callsubr
          111 203 hstemhm
          -4 727 -522 320 hintmask 11001000
          -63 callsubr
          hintmask 00110000
          159 91 -89 callgsubr
          endchar
        </CharString>
        <CharString name="Icircumflex">
          -33 callsubr
          170 -21 hstemhm
          -23 770 -546 320 hintmask 11001000
          -63 callsubr
          hintmask 00000000
          -62 37 -89 callsubr
          hintmask 00110000
          -37 callsubr
        </CharString>
        <CharString name="Idieresis">
          -33 callsubr
          112 346 hstemhm
          -78 878 -599 320 hintmask 11001000
          -63 callsubr
          hintmask 00110000
          413 92 -49 callsubr
        </CharString>
        <CharString name="Idotaccent">
          -608 -8 callgsubr
          186 361 -346 320 hintmask 11001000
          -63 callsubr
          hintmask 00110000
          157 91 -96 callgsubr
          endchar
        </CharString>
        <CharString name="Igrave">
          -608 16 callgsubr
          -7 512 -304 320 hintmask 11001000
          -63 callsubr
          hintmask 00110000
          158 21 -39 callgsubr
        </CharString>
        <CharString name="Imacron">
          -33 callsubr
          184 206 hstemhm
          69 591 -459 320 hintmask 11001000
          -63 callsubr
          hintmask 00110000
          -132 164 -52 callgsubr
          endchar
        </CharString>
        <CharString name="Iogonek">
          -599 41 callgsubr
          -44 callgsubr
          -20 hstemhm
          201 320 hintmask 00000000
          hintmask 01111000
          201 hmoveto
          56 hlineto
          -106 -58 -119 -108 9 -150 -54 callsubr
          hintmask 10111000
          -57 callgsubr
          -7 94 84 63 101 66 rrcurveto
          57 -44 callgsubr
          -320 hlineto
          endchar
        </CharString>
        <CharString name="Itilde">
          -33 callsubr
          100 -28 callgsubr
          -73 876 -602 320 hintmask 11000010
          -63 callsubr
          hintmask 00000000
          -149 111 -41 callgsubr
          hintmask 00011100
          -99 callgsubr
          hintmask 00100100
          -103 -29 130 -162 -26 callgsubr
        </CharString>
        <CharString name="J">
          -532 -44 callgsubr
          -20 hstem
          279 320 vstem
          -10 -164 -90 callsubr
          endchar
        </CharString>
        <CharString name="Jcircumflex">
          -532 -44 callgsubr
          -20 171 -21 hstemhm
          48 770 -539 320 hintmask 10010000
          -10 -164 -90 callsubr
          hintmask 00000000
          220 1724 -89 callsubr
          hintmask 01100000
          -37 callsubr
        </CharString>
        <CharString name="K">
          114 21 -21 1522 39 callsubr
          -44 callsubr
        </CharString>
        <CharString name="Kcommaaccent">
          114 -28 callsubr
          -44 callgsubr
          20 callgsubr
          178 -3 callgsubr
          622 -104 callsubr
          hintmask 00111000
          -618 86 rmoveto
          -44 callsubr
        </CharString>
        <CharString name="L">
          -210 0 242 1280 39 callsubr
          0 callgsubr
        </CharString>
        <CharString name="Lacute">
          -210 0 242 1280 -20 187 -21 -45 callsubr
          -299 512 hintmask 00101000
          353 -72 callgsubr
          hintmask 11010000
          -19 -1668 -6 callgsubr
        </CharString>
        <CharString name="Lcaron">
          -210 0 242 768 698 -186 20 callgsubr
          354 239 hintmask 10110000
          -8 callsubr
          -42 callsubr
          hintmask 01001000
          791 -512 -74 callsubr
        </CharString>
        <CharString name="Lcommaaccent">
          -210 -27 callgsubr
          516 242 1280 20 callgsubr
          44 -3 callgsubr
          488 -104 callsubr
          hintmask 00111000
          -484 86 -6 callgsubr
        </CharString>
        <CharString name="Ldot">
          80 0 242 431 -21 870 20 callgsubr
          377 389 hintmask 01001000
          883 845 -73 callsubr
          hintmask 10110000
          -695 -845 -6 callgsubr
        </CharString>
        <CharString name="Lslash">
          -210 0 242 1280 39 callsubr
          866 242 -548 478 hlineto
          378 139 -65 172 -313 -116 rlineto
          607 -318 -724 vlineto
          -163 -60 65 -170 98 36 rlineto
          endchar
        </CharString>
        <CharString name="M">
          556 6 -21 35 -21 22 -21 -44 callgsubr
          -20 hstemhm
          70 1746 hintmask 00000000
          hintmask 01011000
          70 -1 26 callsubr
          hintmask 10011000
          9 callgsubr
          hintmask 00111000
          -18 callsubr
        </CharString>
        <CharString name="N">
          290 -62 callsubr
          hstem
          32 callgsubr
          vstem
          -55 callgsubr
          endchar
        </CharString>
        <CharString name="NULL">
          43 callgsubr
        </CharString>
        <CharString name="Nacute">
          292 16 callgsubr
          188 296 184 512 -44 296 hintmask 00101000
          814 -72 callgsubr
          hintmask 11010100
          -480 -1668 rmoveto
          -97 callgsubr
          endchar
        </CharString>
        <CharString name="Ncaron">
          292 -62 callsubr
          74 384 hstemhm
          188 296 -50 754 -52 296 hintmask 00101000
          702 -67 callsubr
          hintmask 11010100
          -246 -1868 rmoveto
          -97 callgsubr
          endchar
        </CharString>
        <CharString name="Ncommaaccent">
          292 -28 callsubr
          -44 callgsubr
          -20 hstemhm
          188 296 231 231 190 296 hintmask 00000000
          hintmask 11000100
          653 -104 callsubr
          hintmask 00111010
          -649 86 rmoveto
          -97 callgsubr
          endchar
        </CharString>
        <CharString name="Ntilde">
          292 -62 callsubr
          100 -28 callgsubr
          188 296 -108 876 -116 296 hintmask 00000000
          hintmask 00011010
          501 -65 callgsubr
          -188 -1731 rmoveto
          -97 callgsubr
          endchar
        </CharString>
        <CharString name="O">
          -43 callgsubr
          hstem
          98 329 741 329 vstem
          -75 callgsubr
          endchar
        </CharString>
        <CharString name="OE">
          803 -16 237 -221 251 412 241 374 244 -226 242 hstemhm
          106 325 623 318 hintmask 00000000
          hintmask 10101110
          106 769 rmoveto
          -9 -455 258 -333 435 3 100 1 93 17 71 39 rrcurveto
          hintmask 01110110
          -41 993 251 -675 412 450 241 -450 374 610 244 -928 vlineto
          hintmask 01101110
          -31 vlineto
          33 -64 -79 14 -91 hhcurveto
          hintmask 10101110
          -399 -4 -305 -263 -10 -502 rrcurveto
          698 -548 rmoveto
          -241 -132 216 321 425 201 113 188 113 72 -50 -56 49 hvcurveto
          -871 vlineto
          -73 -59 -83 -25 -108 hhcurveto
          endchar
        </CharString>
        <CharString name="Oacute">
          -43 callgsubr
          151 -21 13 callgsubr
          254 512 -25 329 hintmask 00101000
          827 -72 callgsubr
          hintmask 11010100
          -583 -899 -107 callsubr
          endchar
        </CharString>
        <CharString name="Obreve">
          -43 callgsubr
          75 203 13 callgsubr
          31 727 -17 329 hintmask 00101000
          822 1613 -89 callgsubr
          hintmask 11010100
          -724 -844 -107 callsubr
          endchar
        </CharString>
        <CharString name="Ocircumflex">
          -43 callgsubr
          134 -21 13 callgsubr
          12 770 -41 -77 callsubr
          hintmask 00000000
          -197 1338 -89 callsubr
          hintmask 00101000
          -37 callsubr
        </CharString>
        <CharString name="Odieresis">
          -43 callgsubr
          76 346 13 callgsubr
          -43 878 -94 329 hintmask 00101000
          1076 1614 -95 callgsubr
          hintmask 11010100
          -455 -845 -107 callsubr
          endchar
        </CharString>
        <CharString name="Ograve">
          -43 callgsubr
          151 -21 13 callgsubr
          28 512 201 329 hintmask 00101000
          821 1543 -79 callsubr
          hintmask 11010100
          -723 -774 -107 callsubr
          endchar
        </CharString>
        <CharString name="Ohungarumlaut">
          -43 callgsubr
          150 -21 13 callgsubr
          23 963 -245 -77 callsubr
          hintmask 00101000
          -186 1331 -60 callgsubr
        </CharString>
        <CharString name="Omacron">
          -43 callgsubr
          148 206 13 callgsubr
          104 591 46 329 hintmask 00101000
          531 1686 -52 callgsubr
          hintmask 11010100
          -433 -1123 -107 callsubr
          endchar
        </CharString>
        <CharString name="Omega">
          -66 callgsubr
        </CharString>
        <CharString name="Oslash">
          25 callgsubr
          13 callgsubr
          -51 842 -50 329 hintmask 10001000
          23 callgsubr
          hintmask 01110100
          -995 -1012 -107 callsubr
          endchar
        </CharString>
        <CharString name="Oslashacute">
          25 callgsubr
          151 -21 13 callgsubr
          -51 842 -619 512 57 329 hintmask 10000100
          23 callgsubr
          hintmask 01101001
          -995 -1012 -107 callsubr
          hintmask 00010010
          -53 1322 -102 callsubr
          endchar
        </CharString>
        <CharString name="Otilde">
          -43 callgsubr
          64 -28 callgsubr
          98 329 -38 876 -97 329 hintmask 00000000
          hintmask 00011010
          514 -65 callgsubr
          -291 -962 -107 callsubr
          endchar
        </CharString>
        <CharString name="P">
          28 callsubr
          hstemhm
          188 318 467 316 hintmask 00000000
          hintmask 11011100
          -8 callsubr
          10 callgsubr
          hintmask 11101100
          376 -208 149 -348 vhcurveto
          hintmask 11011100
          27 callsubr
          hintmask 11101100
          -5 callsubr
          hintmask 11011100
          -50 -67 2 6 -49 hvcurveto
          endchar
        </CharString>
        <CharString name="Q">
          265 -326 245 1377 242 hstem
          98 329 741 329 vstem
          714 -14 rmoveto
          -241 77 223 -71 296 hhcurveto
          95 116 30 21 29 hvcurveto
          219 vlineto
          -15 -46 -102 -10 -54 hhcurveto
          -166 -133 7 82 -62 hvcurveto
          300 75 201 243 9 437 9 469 -264 318 -421 -12 -412 -12 -301 -230 -10 -527 -9 -440 233 -315 392 -28 rrcurveto
          84 235 rmoveto
          -249 -122 237 300 391 175 147 212 238 116 -224 -299 -381 -144 -171 -226 hvcurveto
          endchar
        </CharString>
        <CharString name="R">
          2 callsubr
          hstemhm
          188 318 472 309 hintmask 00000000
          hintmask 11101100
          -8 callsubr
          -78 callsubr
          hintmask 11011100
          -22 callsubr
          hintmask 11101100
          -45 callgsubr
          hintmask 11011100
          23 callsubr
          endchar
        </CharString>
        <CharString name="Racute">
          2 callsubr
          187 -21 -45 callsubr
          107 512 -147 309 hintmask 00000000
          hintmask 11100101
          -8 callsubr
          -78 callsubr
          hintmask 11010101
          -22 callsubr
          hintmask 11100101
          -45 callgsubr
          hintmask 11010101
          23 callsubr
          hintmask 00001010
          253 739 -102 callsubr
          endchar
        </CharString>
        <CharString name="Rcaron">
          2 callsubr
          74 384 -45 callsubr
          -127 754 -155 309 hintmask 00001010
          647 -67 callsubr
          hintmask 00000000
          -191 -1868 rmoveto
          -78 callsubr
          hintmask 11100101
          -22 callsubr
          hintmask 11010101
          -45 callgsubr
          hintmask 11100101
          23 callsubr
          endchar
        </CharString>
        <CharString name="Rcommaaccent">
          105 -539 -21 65 -21 537 11 callsubr
          hstemhm
          188 318 167 231 74 309 -16 callgsubr
          hintmask 1100000100000000
          611 -104 callsubr
          -16 callgsubr
          -607 86 rmoveto
          -78 callsubr
          hintmask 0011101010000000
          -22 callsubr
          hintmask 0011011010000000
          -45 callgsubr
          hintmask 0011101010000000
          23 callsubr
          endchar
        </CharString>
        <CharString name="S">
          -10 callsubr
          3 callsubr
          -320 320 hintmask 00000000
          hintmask 11010000
          152 74 -29 callsubr
          hintmask 11101000
          -104 callgsubr
          endchar
        </CharString>
        <CharString name="Sacute">
          -10 callsubr
          151 -21 3 callsubr
          -625 512 -207 320 hintmask 00000000
          hintmask 11001000
          152 74 -29 callsubr
          hintmask 11010010
          -104 callgsubr
          hintmask 00100100
          456 1214 -102 callsubr
          endchar
        </CharString>
        <CharString name="Scaron">
          -10 callsubr
          38 384 3 callsubr
          -859 754 -215 320 hintmask 00000000
          hintmask 11001000
          152 74 -29 callsubr
          hintmask 11010010
          -104 callgsubr
          hintmask 00100100
          344 1247 -97 callsubr
          endchar
        </CharString>
        <CharString name="Scircumflex">
          -10 callsubr
          134 -21 3 callsubr
          -867 770 -223 320 hintmask 00000000
          hintmask 11001000
          152 74 -29 callsubr
          hintmask 11010010
          -104 callgsubr
          hintmask 00000000
          230 1230 -89 callsubr
          hintmask 00100100
          -37 callsubr
        </CharString>
        <CharString name="T">
          -80 21 34 callsubr
          hstem
          466 320 vstem
          466 hmoveto
          -34 callsubr
        </CharString>
        <CharString name="Tbar">
          -80 21 -21 597 199 482 244 hstem
          466 320 vstem
          466 hmoveto
          320 597 289 199 -289 482 434 244 -1190 -244 436 -482 -273 -199 273 hlineto
          endchar
        </CharString>
        <CharString name="Tcaron">
          -80 21 34 callsubr
          54 384 hstemhm
          245 754 -533 320 hintmask 00110000
          513 -67 callsubr
          hintmask 11001000
          221 -1868 rmoveto
          -34 callsubr
        </CharString>
        <CharString name="Thorn">
          29 21 -21 257 243 546 241 235 -20 hstem
          188 318 461 315 vstem
          -8 callsubr
          318 266 hlineto
          -4 40 62 -5 94 hhcurveto
          376 204 204 344 331 -207 151 -326 -86 -84 -8 -5 -73 hvcurveto
          248 -318 vlineto
          318 -1012 rmoveto
          518 vlineto
          47 12 58 4 48 2 rrcurveto
          200 8 108 -86 -166 vvcurveto
          -258 -141 -44 -164 -46 -56 -1 11 -54 vhcurveto
          endchar
        </CharString>
        <CharString name="U">
          -43 callsubr
          hstem
          151 315 597 313 vstem
          -74 callgsubr
          endchar
        </CharString>
        <CharString name="Uacute">
          -43 callsubr
          187 -21 -12 callgsubr
          160 512 -75 313 hintmask 00101000
          772 -72 callgsubr
          hintmask 11010100
          -476 -1015 -103 callsubr
          endchar
        </CharString>
        <CharString name="Ubreve">
          -43 callsubr
          111 203 -12 callgsubr
          -63 727 -67 313 hintmask 00101000
          767 1613 -89 callgsubr
          hintmask 11010100
          -617 -960 -103 callsubr
          endchar
        </CharString>
        <CharString name="Ucircumflex">
          -43 callsubr
          170 -21 -12 callgsubr
          -82 770 -91 313 hintmask 11010100
          -74 callgsubr
          hintmask 00000000
          394 37 -89 callsubr
          hintmask 00101000
          -37 callsubr
        </CharString>
        <CharString name="Udieresis">
          -43 callsubr
          112 346 -12 callgsubr
          -137 878 -144 313 hintmask 00101000
          1021 1614 -95 callgsubr
          hintmask 11010100
          -348 -961 -103 callsubr
          endchar
        </CharString>
        <CharString name="Ugrave">
          -43 callsubr
          187 -21 -12 callgsubr
          -66 512 151 313 hintmask 00101000
          766 1543 -79 callsubr
          hintmask 11010100
          -616 -890 -103 callsubr
          endchar
        </CharString>
        <CharString name="Uhungarumlaut">
          -43 callsubr
          186 -21 -12 callgsubr
          -71 963 -295 313 hintmask 11010100
          -74 callgsubr
          hintmask 00101000
          405 30 -60 callgsubr
        </CharString>
        <CharString name="Umacron">
          -43 callsubr
          184 206 -12 callgsubr
          10 591 -4 313 hintmask 00101000
          476 1686 -52 callgsubr
          hintmask 11010100
          -326 -1239 -103 callsubr
          endchar
        </CharString>
        <CharString name="Uogonek">
          195 -19 callsubr
          500 254 1284 -20 -12 callgsubr
          597 313 hintmask 00000000
          hintmask 01111100
          150 653 rmoveto
          -403 -1 153 -266 456 6 6 1 6 hhcurveto
          -89 -60 -74 -91 8 -130 rrcurveto
          -127 6 129 -93 126 hhcurveto
          84 88 25 43 58 hvcurveto
          hintmask 10111100
          -57 callgsubr
          96 61 81 67 62 vhcurveto
          253 76 129 213 335 vvcurveto
          882 -313 -852 vlineto
          -339 -104 -93 -192 -195 -108 77 355 1 vhcurveto
          2 852 rlineto
          -315 hlineto
          endchar
        </CharString>
        <CharString name="Uring">
          195 -16 254 1177 152 -45 -20 321 146 -12 callgsubr
          -42 21 callgsubr
          -44 313 hintmask 10101001
          -74 callgsubr
          hintmask 01010110
          610 -107 -68 callsubr
        </CharString>
        <CharString name="Utilde">
          -43 callsubr
          100 -28 callgsubr
          151 315 -132 876 -147 313 hintmask 00000000
          hintmask 00011010
          459 -65 callgsubr
          -184 -1078 -103 callsubr
          endchar
        </CharString>
        <CharString name="V">
          56 15 -21 1528 -20 hstem
          -5 1396 vstem
          561 -6 rmoveto
          270 hlineto
          560 1528 rlineto
          -339 hlineto
          -269 -831 -82 -290 -81 290 -284 831 rlineto
          -341 hlineto
          endchar
        </CharString>
        <CharString name="W">
          -3 callsubr
          hstem
          5 1963 vstem
          413 -16 -84 callgsubr
        </CharString>
        <CharString name="Wacute">
          -3 callsubr
          187 -21 hstemhm
          5 1963 -1144 512 hintmask 00101000
          970 -72 callgsubr
          hintmask 11010000
          -411 -1684 -84 callgsubr
        </CharString>
        <CharString name="Wcircumflex">
          -3 callsubr
          170 -21 hstemhm
          5 1963 -1386 770 hintmask 11010000
          413 -16 -84 callsubr
          hintmask 00000000
          739 37 -89 callsubr
          hintmask 00101000
          -37 callsubr
        </CharString>
        <CharString name="Wdieresis">
          -3 callsubr
          112 346 hstemhm
          5 1963 -1441 878 hintmask 00101000
          1219 1614 -95 callgsubr
          hintmask 11010000
          -283 -1630 -84 callgsubr
        </CharString>
        <CharString name="Wgrave">
          -3 callsubr
          187 -21 hstemhm
          5 1963 -1370 512 hintmask 00101000
          964 1543 -79 callsubr
          hintmask 11010000
          -551 -1559 -84 callgsubr
        </CharString>
        <CharString name="X">
          46 -62 callsubr
          21 -20 hstemhm
          32 1312 hintmask 00000000
          hintmask 10110000
          32 hmoveto
          332 hlineto
          236 425 73 131 74 -131 244 -425 rlineto
          353 hlineto
          -464 752 rlineto
          hintmask 11010000
          454 770 rlineto
          -336 hlineto
          -220 -402 -75 -137 -78 137 rlineto
          hintmask 10110000
          -234 403 -348 -1 448 -737 rlineto
          endchar
        </CharString>
        <CharString name="Y">
          37 callsubr
          hstem
          461 319 vstem
          -80 callgsubr
          endchar
        </CharString>
        <CharString name="Yacute">
          -89 16 callgsubr
          461 319 -283 512 hintmask 11010000
          -80 callgsubr
          hintmask 00101000
          182 1008 -102 callsubr
          endchar
        </CharString>
        <CharString name="Ycircumflex">
          37 callsubr
          170 -21 hstemhm
          255 770 -564 319 hintmask 11001000
          -80 callgsubr
          hintmask 00000000
          -44 1024 -89 callsubr
          hintmask 00110000
          -37 callsubr
        </CharString>
        <CharString name="Ydieresis">
          37 callsubr
          112 346 hstemhm
          200 878 -617 319 hintmask 11001000
          -80 callgsubr
          hintmask 00110000
          431 1079 -49 callsubr
        </CharString>
        <CharString name="Ygrave">
          -89 16 callgsubr
          271 512 -322 319 hintmask 11001000
          -80 callgsubr
          hintmask 00110000
          176 1008 -39 callgsubr
        </CharString>
        <CharString name="Z">
          -4 callgsubr
          hstemhm
          54 1181 hintmask 00000000
          hintmask 11010000
          94 hmoveto
          -25 callgsubr
          hintmask 10110000
          672 1106 rlineto
          hintmask 11010000
          -17 callsubr
        </CharString>
        <CharString name="Zacute">
          -4 callgsubr
          167 -21 hstemhm
          54 1181 -701 512 hintmask 00000000
          hintmask 11001000
          94 hmoveto
          -25 callgsubr
          hintmask 10101000
          672 1106 rlineto
          hintmask 11001000
          -48 callsubr
          hintmask 00010100
          626 1459 -102 callsubr
          endchar
        </CharString>
        <CharString name="Zcaron">
          -4 callgsubr
          54 384 hstemhm
          54 1181 -935 754 hintmask 00010100
          568 -67 callsubr
          hintmask 00000000
          -206 -1868 -22 callgsubr
        </CharString>
        <CharString name="Zdotaccent">
          -4 callgsubr
          91 345 hstemhm
          54 1181 -734 361 hintmask 00010100
          673 1613 -96 callgsubr
          hintmask 00000000
          -579 -1613 -22 callgsubr
        </CharString>
        <CharString name="a">
          -57 callsubr
          hstem
          102 322 334 312 vstem
          -107 callgsubr
          endchar
        </CharString>
        <CharString name="aacute">
          -57 callsubr
          492 -21 42 callsubr
          69 555 -290 312 hintmask 11101010
          -107 callgsubr
          hintmask 00010100
          218 894 -100 callgsubr
          endchar
        </CharString>
        <CharString name="abreve">
          -57 callsubr
          42 callsubr
          334 312 vstemhm
          -107 callgsubr
          203 940 -92 callgsubr
        </CharString>
        <CharString name="acircumflex">
          -57 callsubr
          74 462 42 callsubr
          -193 792 -265 312 hintmask 11101010
          -107 callgsubr
          hintmask 00010100
          -37 879 -34 callgsubr
        </CharString>
        <CharString name="acute">
          -665 1655 -21 hstem
          55 555 vstem
          204 -38 callsubr
          endchar
        </CharString>
        <CharString name="acute.cap">
          -678 1689 -21 hstem
          85 512 vstem
          231 -72 callgsubr
          endchar
        </CharString>
        <CharString name="adieresis">
          -57 callsubr
          147 353 42 callsubr
          -215 834 -285 312 hintmask 11101010
          -107 callgsubr
          hintmask 00010100
          436 952 rmoveto
          -90 callgsubr
          -485 hmoveto
          -90 callgsubr
          endchar
        </CharString>
        <CharString name="ae">
          521 -16 211 -211 15 callgsubr
          hstemhm
          102 320 -320 1652 hintmask 00000000
          hintmask 01100110
          102 330 -51 callgsubr
          hintmask 01011001
          -31 callsubr
          hintmask 01100110
          -9 callgsubr
          hintmask 10010110
          -20 callgsubr
        </CharString>
        <CharString name="aeacute">
          521 -16 15 callgsubr
          498 -21 hstemhm
          102 320 -320 1652 -947 555 hintmask 0000010010000000
          956 1251 -100 callgsubr
          -16 callgsubr
          -705 -1058 -51 callgsubr
          hintmask 1100101000000000
          -31 callsubr
          hintmask 1011000100000000
          -9 callgsubr
          hintmask 1100101000000000
          -20 callgsubr
        </CharString>
        <CharString name="afii61352">
          1390 0 217 181 210 709 213 -8 -20 hstemhm
          188 277 618 275 209 304 440 304 hintmask 00000000
          hintmask 11101111
          1567 982 rmoveto
          -308 -4 119 -276 407 hhcurveto
          316 206 211 351 4 hvcurveto
          311 2 -147 259 -362 hhcurveto
          -323 -213 -195 -353 -5 hvcurveto
          -1379 -982 rmoveto
          277 788 hlineto
          -6 296 119 -267 484 -817 rlineto
          296 hlineto
          hintmask 11011111
          -44 callgsubr
          -275 -864 vlineto
          4 -242 -99 232 -504 874 rlineto
          -296 hlineto
          1683 -544 rmoveto
          hintmask 11101111
          230 78 110 152 -1 vhcurveto
          144 -1 66 -136 -219 vvcurveto
          -240 -68 -114 -150 1 vhcurveto
          hintmask 11011111
          -148 2 -74 140 228 vvcurveto
          hintmask 11101111
          -224 -978 rmoveto
          907 217 -907 hlineto
          endchar
        </CharString>
        <CharString name="agrave">
          -57 callsubr
          492 -21 42 callsubr
          -233 556 11 312 hintmask 11101010
          -107 callgsubr
          hintmask 00010100
          174 894 -87 callsubr
        </CharString>
        <CharString name="amacron">
          -57 callsubr
          257 206 42 callsubr
          -93 591 -164 312 hintmask 11101010
          -107 callgsubr
          hintmask 00010100
          -93 1062 -52 callgsubr
          endchar
        </CharString>
        <CharString name="ampersand">
          212 -16 182 -182 233 1120 209 hstemhm
          88 295 -127 279 320 258 37 254 hintmask 00000000
          hintmask 01110110
          88 399 rmoveto
          -266 217 -149 430 106 111 33 39 92 vhcurveto
          -45 73 85 -27 121 hhcurveto
          61 50 7 8 32 hvcurveto
          hintmask 10101110
          167 vlineto
          -87 3 -57 12 -55 32 rrcurveto
          84 83 53 116 164 vvcurveto
          95 -13 57 -7 29 vhcurveto
          -258 hlineto
          5 -28 19 -59 -93 vvcurveto
          -77 -27 -71 -46 -52 vhcurveto
          -97 103 -119 145 -69 89 rrcurveto
          194 100 127 117 251 vvcurveto
          198 -158 166 -256 -268 -175 -140 -238 -170 70 -111 72 -98 vhcurveto
          hintmask 01110110
          -177 -83 -133 -127 -180 vvcurveto
          hintmask 01101110
          574 492 rmoveto
          -88 121 -39 51 110 vvcurveto
          101 66 63 99 113 42 -93 -65 -143 -74 -83 -119 -62 vhcurveto
          hintmask 01110110
          -279 -475 rmoveto
          83 53 61 92 49 vhcurveto
          88 -113 126 -151 103 -113 rrcurveto
          -9 -42 -50 -6 -65 hhcurveto
          -225 -80 77 122 hvcurveto
          endchar
        </CharString>
        <CharString name="aogonek">
          -107 -19 callsubr
          500 211 -176 -21 532 176 218 238 42 callsubr
          334 -30 callsubr
          hintmask 01011111
          102 355 rmoveto
          hintmask 01101111
          -215 148 -156 224 135 101 56 56 61 vhcurveto
          -8 vlineto
          hintmask 01011111
          -52 11 -26 21 -12 vhcurveto
          -104 -59 -116 -107 9 -148 -54 callsubr
          hintmask 10101111
          -57 callgsubr
          -6 86 70 61 90 60 rrcurveto
          79 761 hlineto
          331 -146 86 -317 -180 -205 -75 -44 -73 vhcurveto
          69 -200 rlineto
          44 97 156 37 61 hhcurveto
          193 33 -24 -122 hvcurveto
          -72 vlineto
          -144 -187 -10 -56 -126 hvcurveto
          hintmask 01011111
          -123 -55 -76 -92 -138 vvcurveto
          hintmask 01101111
          322 2 rmoveto
          85 52 29 47 18 vhcurveto
          22 47 113 19 75 hhcurveto
          -272 vlineto
          -27 -21 -86 -36 -70 hhcurveto
          -89 -68 51 111 hvcurveto
          endchar
        </CharString>
        <CharString name="approxequal">
          118 221 244 -85 242 92 244 -85 242 hstemhm
          206 1031 -1026 1031 hintmask 00000000
          hintmask 01000100
          341 274 36 callgsubr
          hintmask 10000100
          -36 callgsubr
          hintmask 01000100
          -14 callsubr
          hintmask 00000000
          125 365 36 callgsubr
          hintmask 00011000
          -36 callgsubr
          hintmask 00101000
          -14 callsubr
          endchar
        </CharString>
        <CharString name="aring">
          -57 callsubr
          151 152 276 146 42 callsubr
          -140 184 290 312 -286 183 hintmask 1110010100000000
          -107 callgsubr
          hintmask 0001101010000000
          198 956 -67 callgsubr
          endchar
        </CharString>
        <CharString name="asciicircum">
          43 1531 -20 hstem
          153 1067 vstem
          153 490 rmoveto
          281 hlineto
          252 673 253 -673 rlineto
          281 hlineto
          -420 1041 rlineto
          -227 hlineto
          endchar
        </CharString>
        <CharString name="asciitilde">
          118 649 244 -85 242 hstemhm
          208 1031 hintmask 00000000
          hintmask 01100000
          338 702 36 callgsubr
          hintmask 10100000
          -36 callgsubr
          hintmask 01100000
          -14 callsubr
          endchar
        </CharString>
        <CharString name="asterisk">
          18 602 1134 hstem
          130 1088 vstem
          253 776 rmoveto
          235 166 135 138 -43 -185 -17 -293 236 1 -27 293 -5 31 -38 129 -4 22 rlinecurve
          141 -130 233 -162 119 214 -258 123 -183 49 181 55 253 131 -112 206 -242 -166 -23 -20 -94 -100 -16 -14 rlinecurve
          43 184 17 288 rlineto
          -236 hlineto
          26 -293 4 -32 39 -128 3 -22 rlinecurve
          -137 130 -243 164 -110 -208 257 -128 28 -11 134 -29 20 -8 rlinecurve
          -181 -53 -252 -135 rlineto
          endchar
        </CharString>
        <CharString name="at">
          898 -468 177 286 201 -201 227 661 197 286 177 hstemhm
          171 211 235 243 407 214 366 209 -16 callgsubr
          hintmask 1101111110000000
          171 440 rmoveto
          -626 400 -282 482 250 162 66 60 100 vhcurveto
          -43 159 rlineto
          -43 -80 -112 -65 -257 hhcurveto
          -333 -358 180 559 570 402 348 452 312 299 -112 -479 -351 -171 -228 -147 -50 -13 51 181 32 hvcurveto
          34 188 60 295 34 145 -185 -31 rcurveline
          39 -56 -90 16 -86 hhcurveto
          -410 -175 -365 -275 -7 hvcurveto
          hintmask 1011111110000000
          -300 -6 160 -145 133 hhcurveto
          156 120 115 147 87 hvcurveto
          -1 -30 0 -25 2 -20 rrcurveto
          hintmask 1101111110000000
          -121 9 57 -66 123 hhcurveto
          294 305 273 537 483 -338 255 -464 -596 -487 -439 -664 hvcurveto
          hintmask 1011111110000000
          689 26 rmoveto
          195 3 129 222 185 hhcurveto
          74 59 -20 -34 25 hvcurveto
          -225 -31 -192 -382 -138 hhcurveto
          -75 -41 74 170 2 hvcurveto
          endchar
        </CharString>
        <CharString name="atilde">
          -57 callsubr
          181 19 callsubr
          102 322 -244 876 -298 312 hintmask 11100101
          -107 callgsubr
          hintmask 00000000
          -119 1017 -41 callgsubr
          hintmask 00001010
          -99 callgsubr
          hintmask 00010010
          -46 callgsubr
        </CharString>
        <CharString name="b">
          10 -23 216 730 233 hstem
          12 callsubr
          438 327 vstem
          -51 callsubr
          endchar
        </CharString>
        <CharString name="backslash">
          -466 -363 1962 hstem
          14 816 vstem
          269 1599 rmoveto
          -255 hlineto
          561 -1962 rlineto
          255 hlineto
          endchar
        </CharString>
        <CharString name="bar">
          -465 -187 1967 hstem
          305 255 vstem
          305 -187 rmoveto
          255 1967 -255 hlineto
          endchar
        </CharString>
        <CharString name="braceleft">
          33 callgsubr
          324 270 vstem
          324 60 rmoveto
          -197 66 -74 154 109 117 11 24 86 vhcurveto
          156 -262 582 vlineto
          41 -14 33 -25 28 vhcurveto
          -44 49 -85 36 -77 27 77 28 87 35 42 48 rrcurveto
          24 27 15 34 43 vvcurveto
          571 262 171 vlineto
          11 -86 -117 13 -109 hhcurveto
          -154 -66 -74 -197 hvcurveto
          -486 vlineto
          -75 -155 -42 -101 -10 vhcurveto
          -191 vlineto
          101 -10 155 -53 -72 vvcurveto
          endchar
        </CharString>
        <CharString name="braceright">
          33 callgsubr
          348 270 vstem
          618 547 rmoveto
          72 155 53 101 10 vhcurveto
          191 vlineto
          -101 10 -155 42 75 vvcurveto
          486 vlineto
          197 -66 74 -154 -109 -117 -13 -11 -86 vhcurveto
          -171 262 -571 vlineto
          -43 15 -34 24 -27 vhcurveto
          42 -48 87 -35 77 -28 -77 -27 -85 -36 -44 -49 rrcurveto
          -25 -28 -14 -33 -41 vvcurveto
          -582 -262 -156 vlineto
          -24 86 117 -11 109 hhcurveto
          154 66 74 197 hvcurveto
          endchar
        </CharString>
        <CharString name="bracketleft">
          32 callsubr
          145 283 vstem
          145 60 rmoveto
          -197 36 -54 154 164 68 10 14 129 vhcurveto
          145 vlineto
          -268 2 rlineto
          1570 268 163 vlineto
          11 -129 -68 13 -164 hhcurveto
          -153 -37 -54 -197 hvcurveto
          endchar
        </CharString>
        <CharString name="bracketright">
          32 callsubr
          361 283 vstem
          644 1486 rmoveto
          197 -37 54 -153 -164 -68 -13 -11 -129 vhcurveto
          -163 268 -1570 vlineto
          -268 -2 rlineto
          -145 vlineto
          -14 129 68 -10 164 hhcurveto
          154 36 54 197 hvcurveto
          endchar
        </CharString>
        <CharString name="breve">
          -515 1298 218 hstemhm
          44 196 hintmask 00000000
          hintmask 11000000
          408 1298 -92 callgsubr
        </CharString>
        <CharString name="breve.cap">
          -515 1614 203 hstem
          44 727 vstem
          408 1614 -89 callgsubr
          endchar
        </CharString>
        <CharString name="brokenbar">
          -465 -186 1966 hstem
          305 255 vstem
          305 964 rmoveto
          255 816 -255 hlineto
          -1966 vmoveto
          255 806 -255 hlineto
          endchar
        </CharString>
        <CharString name="bullet">
          -425 467 528 hstem
          187 531 vstem
          443 467 rmoveto
          148 124 126 145 3 hvcurveto
          148 3 -109 109 -148 hhcurveto
          -147 -127 -124 -146 -3 hvcurveto
          -145 -3 111 -113 148 hhcurveto
          endchar
        </CharString>
        <CharString name="c">
          6 callgsubr
          hstem
          95 310 vstem
          95 556 -98 callgsubr
          endchar
        </CharString>
        <CharString name="cacute">
          6 callgsubr
          499 -21 hstemhm
          95 310 99 555 hintmask 00101000
          653 -38 callsubr
          hintmask 11010000
          -409 -833 -98 callgsubr
          endchar
        </CharString>
        <CharString name="caron">
          -496 39 callgsubr
          329 1237 -81 callgsubr
          endchar
        </CharString>
        <CharString name="caron.cap">
          -561 1576 384 hstem
          49 754 vstem
          317 -67 callsubr
          endchar
        </CharString>
        <CharString name="caronvertical">
          -917 1010 698 hstem
          124 239 vstem
          243 1010 -74 callsubr
        </CharString>
        <CharString name="ccaron">
          6 callgsubr
          95 462 hstemhm
          95 310 -167 792 hintmask 00101000
          524 -5 callgsubr
          hintmask 11010000
          -143 -1068 -98 callgsubr
          endchar
        </CharString>
        <CharString name="ccedilla">
          -464 179 296 -21 911 255 hstem
          95 310 127 217 vstem
          334 -271 rmoveto
          -46 callsubr
          3 75 -11 82 -26 54 109 13 97 40 56 54 -45 185 rcurveline
          -25 -46 -98 -22 -104 hhcurveto
          -162 -124 114 246 7 hvcurveto
          229 6 154 77 131 hhcurveto
          106 64 -15 -29 55 hvcurveto
          39 241 rlineto
          28 -38 -115 30 -143 hhcurveto
          -387 -182 -264 -336 -291 141 -228 283 -45 hvcurveto
          11 -29 6 -39 -4 -59 -38 callgsubr
          endchar
        </CharString>
        <CharString name="ccircumflex">
          6 callgsubr
          81 462 hstemhm
          95 310 -163 792 hintmask 00101000
          398 1237 -92 callsubr
          hintmask 11010000
          -147 -770 -98 callgsubr
          endchar
        </CharString>
        <CharString name="cdotaccent">
          6 callgsubr
          151 358 hstemhm
          95 310 38 379 hintmask 11010000
          95 556 -98 callgsubr
          hintmask 00101000
          529 751 -99 callsubr
        </CharString>
        <CharString name="cedilla">
          -812 -464 179 hstemhm
          251 217 hintmask 00000000
          hintmask 11000000
          220 30 rmoveto
          20 -35 17 -43 -6 -87 -38 callgsubr
          -46 callsubr
          4 98 -20 110 -46 43 -49 4 rcurveline
          endchar
        </CharString>
        <CharString name="cent">
          -143 8 -21 26 -21 1155 -20 27 -20 hstemhm
          144 310 112 171 -137 171 hintmask 00000000
          hintmask 01011100
          568 -8 rmoveto
          -4 -208 rlineto
          172 hlineto
          hintmask 10011100
          3 203 120 11 107 41 60 58 rlinecurve
          -45 185 rlineto
          -25 -46 -98 -22 -104 hhcurveto
          -162 -124 114 246 7 hvcurveto
          229 6 154 77 131 hhcurveto
          106 64 -15 -29 55 hvcurveto
          39 241 rlineto
          hintmask 01011010
          -33 24 -91 26 -116 6 5 223 rcurveline
          -171 hlineto
          hintmask 01101010
          -6 -230 rlineto
          -308 -48 -145 -243 -300 vvcurveto
          hintmask 01011100
          -291 141 -228 283 -45 vhcurveto
          endchar
        </CharString>
        <CharString name="circumflex">
          -452 39 callgsubr
          199 1237 -34 callgsubr
        </CharString>
        <CharString name="circumflex.cap">
          -462 1671 -21 23 -21 hstemhm
          49 770 hintmask 00000000
          hintmask 01100000
          211 1560 -89 callsubr
          hintmask 10100000
          -37 callsubr
        </CharString>
        <CharString name="colon">
          -689 -1 -21 780 -21 hstemhm
          126 389 hintmask 10100000
          126 171 -73 callsubr
          hintmask 01100000
          759 vmoveto
          -15 callsubr
        </CharString>
        <CharString name="colonmonetary">
          108 7 -21 35 -21 1538 -20 hstemhm
          708 248 -242 111 14 240 hintmask 00000000
          hintmask 01100100
          599 26 rmoveto
          -25 -380 rlineto
          hintmask 01101100
          117 hlineto
          23 354 rlineto
          hintmask 01100100
          43 -7 46 -5 47 -2 -22 -340 rcurveline
          hintmask 10110000
          117 hlineto
          22 340 147 8 101 40 67 30 rlinecurve
          300 vlineto
          -47 -43 -125 -47 -124 -7 65 973 rcurveline
          118 -16 64 -42 23 -17 46 312 rcurveline
          hintmask 01100100
          -53 13 -67 25 -112 14 19 286 rcurveline
          -117 hlineto
          -19 -278 rlineto
          hintmask 01101100
          1 -12 -12 0 -12 hhcurveto
          -34 -34 -2 -3 -33 hvcurveto
          19 282 rlineto
          hintmask 01110000
          -117 hlineto
          -20 -299 rlineto
          -346 -73 -254 -254 -432 vvcurveto
          hintmask 01100100
          -372 173 -262 328 -97 vhcurveto
          135 278 rmoveto
          62 924 43 11 46 6 49 1 rlinecurve
          -65 -975 -50 6 -44 11 -41 16 rlinecurve
          -112 70 rmoveto
          -100 89 -49 140 176 vvcurveto
          188 76 136 126 76 vhcurveto
          endchar
        </CharString>
        <CharString name="comma">
          -637 -485 -21 hstemhm
          163 406 -289 289 hintmask 00000000
          hintmask 11000000
          163 73 rmoveto
          hintmask 10100000
          -26 callsubr
          endchar
        </CharString>
        <CharString name="commaaccent">
          -915 -27 callgsubr
          hstemhm
          117 231 18 callgsubr
          55 -104 callsubr
          endchar
        </CharString>
        <CharString name="copyright">
          763 82 129 264 199 580 195 265 126 hstem
          176 142 286 234 936 143 vstem
          176 963 rmoveto
          -487 384 -394 486 486 385 394 487 486 -385 391 -486 -486 -384 -391 -486 vhcurveto
          142 hmoveto
          413 309 338 419 419 309 -338 -413 -414 -309 -338 -419 -419 -309 338 414 vhcurveto
          286 -13 rmoveto
          -259 1 172 -216 272 hhcurveto
          133 130 51 53 65 hvcurveto
          -48 159 rlineto
          -28 -47 -79 -36 -99 hhcurveto
          -156 -111 89 231 1 hvcurveto
          163 1 106 97 147 hhcurveto
          81 89 -27 -31 42 hvcurveto
          45 206 rlineto
          23 -41 -96 24 -113 hhcurveto
          -322 -175 -215 -284 2 hvcurveto
          endchar
        </CharString>
        <CharString name="currency">
          214 317 220 472 220 hstem
          316 222 454 222 vstem
          200 314 rmoveto
          141 -144 202 205 rlineto
          -37 65 75 -21 81 hhcurveto
          81 77 21 38 66 hvcurveto
          203 -205 140 145 -195 199 rlineto
          49 73 29 88 97 vvcurveto
          94 -28 87 -48 72 vhcurveto
          206 208 -141 147 -213 -214 rlineto
          39 -66 -78 23 -82 hhcurveto
          -82 -76 -22 -39 -66 hvcurveto
          -200 206 -139 -147 192 -197 rlineto
          -49 -73 -28 -88 -96 vvcurveto
          -98 29 -89 50 -74 vhcurveto
          371 25 rmoveto
          -125 -103 110 126 126 103 110 125 125 101 -110 -126 -126 -101 -110 -125 hvcurveto
          endchar
        </CharString>
        <CharString name="d">
          9 -16 -10 callgsubr
          30 callsubr
          hintmask 00000000
          hintmask 01111000
          -86 callgsubr
          hintmask 10111000
          -78 callgsubr
          endchar
        </CharString>
        <CharString name="dagger">
          -294 1076 210 hstemhm
          390 256 -248 242 hintmask 00000000
          hintmask 10100000
          406 200 rmoveto
          228 hlineto
          12 877 283 -1 rlineto
          212 vlineto
          hintmask 11000000
          -283 -2 rlineto
          372 -256 -372 vlineto
          -282 2 -1 -212 rlineto
          hintmask 10100000
          283 1 rlineto
          endchar
        </CharString>
        <CharString name="daggerdbl">
          -294 427 211 438 211 hstemhm
          390 234 -227 237 -229 240 18 callgsubr
          107 427 rmoveto
          hintmask 11001000
          283 1 15 -784 rlineto
          hintmask 11100000
          219 hlineto
          hintmask 11010000
          21 784 283 -1 rlineto
          212 vlineto
          hintmask 11100000
          -283 438 hlineto
          284 -1 rlineto
          212 vlineto
          -284 -1 rlineto
          371 -255 -371 vlineto
          -282 1 -1 -212 283 1 rlineto
          -438 -283 vlineto
          endchar
        </CharString>
        <CharString name="dcaron">
          317 -16 -10 callgsubr
          -146 698 30 callsubr
          240 239 hintmask 00000000
          hintmask 01101100
          -86 callgsubr
          hintmask 10101100
          -78 callgsubr
          hintmask 00010010
          885 783 -74 callsubr
        </CharString>
        <CharString name="dcroat">
          9 -16 -10 callgsubr
          137 180 30 callsubr
          hintmask 00000000
          hintmask 01111100
          95 533 rmoveto
          -370 212 -179 242 186 97 82 53 52 vhcurveto
          -77 vlineto
          -51 30 -7 45 vhcurveto
          212 1309 128 180 -128 189 -312 -189 -227 -180 227 -69 hlineto
          3 -100 rlineto
          17 -45 -64 15 -78 hhcurveto
          -347 -233 -244 -379 hvcurveto
          hintmask 10111100
          -78 callgsubr
          endchar
        </CharString>
        <CharString name="degree">
          -373 921 176 361 176 hstem
          118 188 345 187 vstem
          478 921 rmoveto
          207 153 151 206 200 -159 156 -201 -206 -154 -152 -204 -200 160 -157 200 hvcurveto
          176 vmoveto
          -95 -77 79 102 104 74 76 98 96 77 -78 -102 -104 -75 -77 -98 hvcurveto
          endchar
        </CharString>
        <CharString name="dieresis">
          -356 1310 353 hstem
          70 834 vstem
          721 1310 rmoveto
          -90 callgsubr
          -485 hmoveto
          -90 callgsubr
          endchar
        </CharString>
        <CharString name="dieresis.cap">
          -342 1614 346 hstem
          55 878 vstem
          747 1614 -49 callsubr
        </CharString>
        <CharString name="divide">
          73 655 234 hstem
          203 997 vstem
          712 1025 rmoveto
          113 91 94 113 107 -67 80 -117 -111 -94 -95 -111 -109 78 -79 107 hvcurveto
          -509 -370 rmoveto
          997 234 -997 hlineto
          320 -564 rmoveto
          -109 78 -79 107 113 91 94 113 106 -67 81 -116 -111 -95 -95 -111 vhcurveto
          endchar
        </CharString>
        <CharString name="dollar">
          80 -225 285 -76 249 1067 238 -63 288 hstemhm
          223 993 -651 237 -233 237 -188 130 -125 129 -16 callgsubr
          hintmask 1001000100000000
          614 1475 rmoveto
          hintmask 1001001000000000
          184 hlineto
          8 288 rlineto
          hintmask 1001000010000000
          -183 hlineto
          hintmask 1001010000000000
          -50 -1703 rmoveto
          -8 -285 rlineto
          hintmask 1001000100000000
          184 hlineto
          hintmask 1001000010000000
          7 285 rlineto
          -16 callgsubr
          -520 14 -29 callsubr
          hintmask 0110100000000000
          -104 callgsubr
          endchar
        </CharString>
        <CharString name="dong">
          44 0 197 94 229 509 219 105 168 hstem
          151 329 349 327 vstem
          562 291 rmoveto
          180 80 69 41 43 hvcurveto
          -70 vlineto
          -8 0 -32 23 vhcurveto
          268 1062 182 168 -182 173 -327 -173 -328 -168 328 hlineto
          3 -121 rlineto
          8 -35 -53 8 -74 hhcurveto
          -319 -200 -189 -323 -303 190 -142 221 hvcurveto
          76 229 rmoveto
          -83 -75 63 159 170 45 117 155 104 31 -23 -13 14 hvcurveto
          -414 vlineto
          -18 -26 -46 -41 -119 hhcurveto
          -503 -520 rmoveto
          1105 197 -1105 hlineto
          endchar
        </CharString>
        <CharString name="dotaccent">
          -841 1307 358 hstem
          55 379 vstem
          236 1307 -99 callsubr
        </CharString>
        <CharString name="dotaccent.cap">
          -841 1614 345 hstem
          64 361 vstem
          236 -42 callgsubr
          endchar
        </CharString>
        <CharString name="dotlessi">
          -670 37 callgsubr
          -11 callgsubr
          vstem
          174 hmoveto
          -62 callgsubr
          endchar
        </CharString>
        <CharString name="dotlessj">
          17 callgsubr
          hstem
          -11 callgsubr
          vstem
          174 1 -91 callgsubr
          endchar
        </CharString>
        <CharString name="e">
          -56 callsubr
          hstem
          95 998 vstem
          95 574 -93 callsubr
        </CharString>
        <CharString name="eacute">
          -56 callsubr
          499 -21 21 callsubr
          -592 555 hintmask 00010100
          650 -38 callsubr
          hintmask 11101000
          -406 -815 -93 callsubr
        </CharString>
        <CharString name="ebreve">
          -56 callsubr
          21 callsubr
          vstemhm
          95 574 -106 callsubr
          -168 630 -92 callgsubr
        </CharString>
        <CharString name="ecaron">
          -56 callsubr
          95 462 21 callsubr
          -858 792 hintmask 00010100
          521 -5 callgsubr
          hintmask 11101000
          -140 -1050 -93 callsubr
        </CharString>
        <CharString name="ecircumflex">
          -56 callsubr
          81 462 21 callsubr
          -854 792 hintmask 00010100
          395 1237 -92 callsubr
          hintmask 11101000
          -144 -752 -93 callsubr
        </CharString>
        <CharString name="edieresis">
          -56 callsubr
          154 353 21 callsubr
          -876 834 hintmask 00010100
          868 1310 rmoveto
          -90 callgsubr
          -485 hmoveto
          -90 callgsubr
          hintmask 11101000
          -288 -736 -93 callsubr
        </CharString>
        <CharString name="edotaccent">
          -56 callsubr
          151 358 21 callsubr
          -653 379 hintmask 11101000
          95 574 -106 callsubr
          hintmask 00010100
          -182 639 -99 callsubr
        </CharString>
        <CharString name="egrave">
          -56 callsubr
          499 -21 21 callsubr
          -894 556 hintmask 11101000
          95 574 -106 callsubr
          hintmask 00010100
          -197 584 -87 callsubr
        </CharString>
        <CharString name="eight">
          26 -16 220 1151 210 hstemhm
          129 295 -244 288 427 277 -248 311 hintmask 00000000
          hintmask 11100100
          129 385 rmoveto
          -268 240 -133 323 305 241 147 279 -3 vhcurveto
          -2 192 -157 116 -172 98 rrcurveto
          hintmask 11011000
          184 88 84 169 139 vvcurveto
          209 -182 144 -308 -309 -193 -159 -232 -189 104 -117 131 -89 vhcurveto
          hintmask 11100100
          -209 -109 -77 -147 -138 vvcurveto
          hintmask 11011000
          585 534 rmoveto
          -136 77 -110 80 117 vvcurveto
          98 94 64 116 138 79 -72 -96 vhcurveto
          3 -109 -57 -106 -127 -53 rrcurveto
          hintmask 11100100
          -290 -516 rmoveto
          127 73 85 106 56 vhcurveto
          167 -86 154 -73 -134 vvcurveto
          -111 -109 -63 -122 -191 -78 89 110 vhcurveto
          endchar
        </CharString>
        <CharString name="ellipsis">
          573 -1 -21 hstem
          126 389 242 389 242 389 cntrmask 01110000
          1388 171 -73 callsubr
          -631 hmoveto
          -93 callgsubr
          -631 hmoveto
          -15 callsubr
        </CharString>
        <CharString name="emacron">
          -56 callsubr
          264 206 21 callsubr
          -754 591 hintmask 11101000
          95 574 -106 callsubr
          hintmask 00010100
          -464 752 -52 callgsubr
          endchar
        </CharString>
        <CharString name="emdash">
          1083 644 245 hstem
          245 1923 vstem
          245 644 rmoveto
          1923 245 -1923 hlineto
          endchar
        </CharString>
        <CharString name="endash">
          372 644 245 hstem
          245 1212 vstem
          245 644 rmoveto
          1212 245 -1212 hlineto
          endchar
        </CharString>
        <CharString name="eng">
          22 -507 199 -164 -21 514 -21 1138 -20 41 19 callgsubr
          392 -30 callsubr
          hintmask 01101110
          174 hmoveto
          312 814 hlineto
          69 61 101 29 56 1 rrcurveto
          130 4 36 -65 -186 vvcurveto
          -703 vlineto
          hintmask 10101110
          -230 -39 -33 -90 -24 -63 4 7 -21 vhcurveto
          hintmask 01101110
          -196 vlineto
          hintmask 10101110
          -8 38 94 -6 67 hhcurveto
          195 155 131 345 hvcurveto
          747 vlineto
          -1 334 -114 117 -241 -8 -140 -4 -154 -79 -77 -58 rrcurveto
          hintmask 01110110
          -6 120 rlineto
          -283 hlineto
          endchar
        </CharString>
        <CharString name="eogonek">
          -140 -19 callsubr
          500 232 -204 -21 504 173 266 222 21 callsubr
          -511 245 hintmask 00000000
          hintmask 01011110
          95 574 rmoveto
          hintmask 01101110
          -370 190 -220 348 39 39 3 4 37 vhcurveto
          hintmask 01011101
          -93 -63 -81 -108 8 -136 -54 callsubr
          hintmask 10101101
          -57 callgsubr
          139 131 109 88 65 vhcurveto
          -1 -1 11 9 -51 177 rlineto
          -33 -60 -152 -26 -81 hhcurveto
          -176 -116 85 194 -13 hvcurveto
          675 hlineto
          8 51 3 77 86 vvcurveto
          -4 332 -213 117 -236 -2 rrcurveto
          hintmask 01011110
          -350 -2 -195 -248 -332 vvcurveto
          318 94 rmoveto
          202 22 80 64 115 hhcurveto
          140 43 -99 -167 -10 hvcurveto
          endchar
        </CharString>
        <CharString name="equal">
          93 411 216 296 216 hstem
          251 921 vstem
          251 923 10 callsubr
        </CharString>
        <CharString name="estimated">
          53 -16 163 465 156 425 163 hstem
          109 326 535 304 vstem
          435 258 rmoveto
          354 828 vlineto
          11 51 0 83 86 vvcurveto
          -11 329 -232 200 -295 -5 rrcurveto
          -426 -7 -201 -286 -392 vvcurveto
          -430 225 -257 398 194 187 70 61 85 vhcurveto
          -70 151 rlineto
          -55 -73 -140 -64 -165 hhcurveto
          -127 -111 30 81 -77 hvcurveto
          510 vmoveto
          309 vlineto
          82 74 102 34 111 hhcurveto
          118 78 -28 -46 52 hvcurveto
          -351 vlineto
          endchar
        </CharString>
        <CharString name="eth">
          -36 -27 229 730 217 hstem
          95 324 473 323 vstem
          95 550 rmoveto
          -344 218 -235 341 2 vhcurveto
          312 2 249 229 447 vvcurveto
          390 -200 376 -312 177 vhcurveto
          57 71 66 87 0 vvcurveto
          -152 100 rlineto
          0 -69 -99 -56 -74 vhcurveto
          -80 45 -84 30 -112 33 -53 -176 rcurveline
          70 -21 70 -32 64 -40 -122 -157 rcurveline
          149 -99 117 158 113 -83 93 -116 41 -125 rlinecurve
          32 -49 -64 21 -78 hhcurveto
          -338 -191 -236 -363 hvcurveto
          324 -3 rmoveto
          245 91 140 150 114 81 -63 -53 31 vhcurveto
          5 -63 1 -105 -74 vvcurveto
          -240 -102 -132 -130 -149 -92 117 228 vhcurveto
          endchar
        </CharString>
        <CharString name="exclam">
          -689 -1 -21 hstem
          126 389 vstem
          197 555 -58 callsubr
          endchar
        </CharString>
        <CharString name="exclamdbl">
          -60 -1 -21 hstemhm
          126 389 240 389 hintmask 11000000
          197 555 -58 callsubr
          hintmask 10100000
          700 384 -58 callsubr
          endchar
        </CharString>
        <CharString name="exclamdown">
          -689 1345 21 hstem
          116 389 vstem
          434 789 rmoveto
          -267 hlineto
          -34 -1225 rlineto
          347 hlineto
          25 1609 rmoveto
          110 -1 -78 83 -107 hhcurveto
          -114 -90 -98 -115 1 hvcurveto
          -108 1 68 -84 117 hhcurveto
          111 94 99 113 -2 hvcurveto
          endchar
        </CharString>
        <CharString name="f">
          33 callsubr
          hstem
          237 312 vstem
          -63 callgsubr
          endchar
        </CharString>
        <CharString name="f_f">
          386 14 callgsubr
          hintmask 11110000
          -63 callgsubr
          hintmask 11101000
          -41 callsubr
        </CharString>
        <CharString name="f_f_i">
          -86 callsubr
        </CharString>
        <CharString name="f_f_i_trk">
          1046 -58 callgsubr
          546 17 callsubr
          hintmask 1100110000000000
          237 hmoveto
          -88 callsubr
          hintmask 1010000010000000
          795 -924 rmoveto
          -62 callgsubr
          hintmask 0001000100000000
          -82 callsubr
          endchar
        </CharString>
        <CharString name="f_f_l">
          1058 14 callgsubr
          489 312 hintmask 10000100
          1896 -19 callgsubr
          hintmask 11110000
          -1659 -1662 -101 callgsubr
          hintmask 11101000
          -41 callsubr
        </CharString>
        <CharString name="f_i_trk">
          188 -58 callgsubr
          457 379 -353 312 hintmask 11001100
          -63 callgsubr
          hintmask 10100001
          795 -924 rmoveto
          -62 callgsubr
          hintmask 00010010
          -82 callsubr
          endchar
        </CharString>
        <CharString name="ffi_dflt">
          -86 callsubr
        </CharString>
        <CharString name="fi">
          -69 callgsubr
        </CharString>
        <CharString name="fi_trk">
          -69 callgsubr
        </CharString>
        <CharString name="five">
          -37 -354 229 576 234 300 267 hstemhm
          192 959 -319 319 hintmask 00000000
          hintmask 11110000
          193 -123 rmoveto
          -1 -218 rlineto
          -11 38 61 -2 36 hhcurveto
          hintmask 11101000
          505 3 319 262 334 vvcurveto
          266 -161 174 -280 -78 -76 -13 -22 -98 vhcurveto
          33 335 rlineto
          593 hlineto
          28 267 rlineto
          -847 hlineto
          -66 -837 50 -30 rlineto
          35 107 105 31 85 hhcurveto
          209 -1 77 -71 -145 vvcurveto
          -214 -230 -145 -330 vhcurveto
          hintmask 11110000
          -26 -26 1 1 -27 hvcurveto
          endchar
        </CharString>
        <CharString name="fl">
          200 -24 callsubr
          323 220 hstemhm
          237 312 489 312 hintmask 10001000
          1038 -19 callgsubr
          hintmask 11110000
          -801 -1662 -96 callsubr
        </CharString>
        <CharString name="florin">
          -151 924 216 317 227 0 -21 hstemhm
          208 889 hintmask 00000000
          hintmask 10110000
          273 -356 rmoveto
          314 hlineto
          110 1280 rlineto
          275 hlineto
          17 216 rlineto
          -274 hlineto
          10 89 rlineto
          hintmask 11010000
          164 17 77 64 103 hhcurveto
          81 54 -9 -14 22 hvcurveto
          hintmask 10110000
          18 229 rlineto
          hintmask 11010000
          9 -20 -74 12 -90 hhcurveto
          -235 -232 -113 -348 -36 hvcurveto
          -9 -83 -179 -38 -14 -178 rlineto
          176 hlineto
          endchar
        </CharString>
        <CharString name="four">
          82 0 234 hstem
          828 300 vstem
          100 133 rmoveto
          76 -133 rlineto
          652 -376 300 376 233 234 -233 410 -262 hlineto
          -38 -410 rlineto
          -388 hlineto
          76 127 461 850 -244 123 rlineto
          -73 hlineto
          endchar
        </CharString>
        <CharString name="four.numr">
          -149 858 192 hstem
          686 256 vstem
          141 858 -68 callgsubr
          endchar
        </CharString>
        <CharString name="foursuperior">
          -149 858 192 hstem
          686 256 vstem
          141 858 -68 callgsubr
          endchar
        </CharString>
        <CharString name="fraction">
          -294 21 -21 1530 -20 hstem
          127 782 vstem
          127 hmoveto
          0 callsubr
        </CharString>
        <CharString name="franc">
          -64 21 -21 217 221 158 266 391 269 hstem
          55 1109 vstem
          55 217 rmoveto
          170 -217 360 217 270 221 -270 158 450 266 -450 391 579 269 -939 -1084 -170 hlineto
          endchar
        </CharString>
        <CharString name="g">
          -94 callgsubr
          endchar
        </CharString>
        <CharString name="gbreve">
          -94 callgsubr
          -16 callgsubr
          233 1412 -92 callgsubr
        </CharString>
        <CharString name="gcaron">
          43 callgsubr
        </CharString>
        <CharString name="gcircumflex">
          -59 callsubr
          81 462 -25 callsubr
          -185 792 -206 295 -193 308 hintmask 0000010010000000
          394 1237 -92 callsubr
          -16 callgsubr
          -147 -1509 -87 callgsubr
        </CharString>
        <CharString name="gcommaaccent">
          -59 callsubr
          132 568 -25 callsubr
          27 257 117 295 -193 308 -16 callgsubr
          hintmask 0000010010000000
          653 1288 rmoveto
          139 121 rlineto
          69 vlineto
          -51 10 -34 79 62 vvcurveto
          83 24 35 29 35 vhcurveto
          23 vlineto
          -118 51 rlineto
          -76 -22 -116 -121 -164 vvcurveto
          -151 103 -99 100 -11 vhcurveto
          -16 callgsubr
          -562 -1471 -87 callgsubr
        </CharString>
        <CharString name="gdotaccent">
          -59 callsubr
          151 358 -25 callsubr
          16 379 6 -88 callgsubr
          219 1421 -99 callsubr
        </CharString>
        <CharString name="germandbls">
          65 -16 213 -176 -21 1372 207 hstemhm
          193 317 219 269 -77 324 -220 317 hintmask 00000000
          hintmask 01110100
          193 hmoveto
          317 951 hlineto
          319 98 102 151 104 58 -53 -97 vhcurveto
          hintmask 01111000
          -164 -192 -33 -188 vvcurveto
          hintmask 10110010
          -269 295 -40 1 -204 vhcurveto
          -99 -97 -28 -67 -86 -69 27 16 -26 vhcurveto
          -223 vlineto
          -17 33 91 -16 112 hhcurveto
          213 213 80 275 hvcurveto
          hintmask 01111000
          340 -344 54 156 vvcurveto
          hintmask 01110100
          122 247 26 231 vvcurveto
          188 -171 123 -270 -288 -242 -126 -305 -64 vhcurveto
          -156 -29 rlineto
          -195 139 vlineto
          endchar
        </CharString>
        <CharString name="grave">
          -664 1655 -21 hstem
          55 556 vstem
          462 1252 -87 callsubr
        </CharString>
        <CharString name="grave.cap">
          -678 1689 -21 hstem
          57 512 vstem
          423 1543 -39 callgsubr
        </CharString>
        <CharString name="greater">
          47 229 1102 hstem
          218 952 vstem
          1170 852 rmoveto
          -952 479 rlineto
          -274 vlineto
          597 -284 -597 -262 rlineto
          -282 vlineto
          952 469 rlineto
          endchar
        </CharString>
        <CharString name="greaterequal">
          48 -1 205 hstem
          224 969 vstem
          1193 851 rmoveto
          -969 420 rlineto
          -262 vlineto
          631 -236 -631 -232 rlineto
          -263 vlineto
          969 418 rlineto
          -492 vmoveto
          -969 -205 969 hlineto
          endchar
        </CharString>
        <CharString name="gtilde">
          43 callgsubr
        </CharString>
        <CharString name="guillemotleft">
          668 1157 -20 hstemhm
          235 731 52 731 hintmask 11000000
          235 492 -30 callgsubr
          hintmask 10100000
          783 -243 -30 callgsubr
          endchar
        </CharString>
        <CharString name="guillemotright">
          668 1157 -20 hstemhm
          239 731 52 731 hintmask 11000000
          970 735 -17 callgsubr
          656 416 rlineto
          783 243 -17 callgsubr
          rlineto
          hintmask 10100000
          656 416 rlineto
          endchar
        </CharString>
        <CharString name="guilsinglleft">
          -116 1157 -20 hstem
          235 731 vstem
          235 492 -30 callgsubr
          endchar
        </CharString>
        <CharString name="guilsinglright">
          -116 1157 -20 hstem
          238 731 vstem
          969 735 -17 callgsubr
          656 416 rlineto
          endchar
        </CharString>
        <CharString name="h">
          21 20 callsubr
          hstem
          12 callsubr
          397 312 vstem
          -60 callsubr
          438 14 callsubr
          endchar
        </CharString>
        <CharString name="hbar">
          21 20 callsubr
          154 180 hstem
          12 callsubr
          397 312 vstem
          -60 callsubr
          69 223 180 -223 189 -312 -189 -132 -180 132 vlineto
          endchar
        </CharString>
        <CharString name="hcircumflex">
          21 20 callsubr
          534 -21 hstemhm
          12 callsubr
          -75 770 -298 312 hintmask 11010100
          -60 callsubr
          438 14 callsubr
          hintmask 00000000
          399 -102 -89 callsubr
          hintmask 00101000
          -37 callsubr
        </CharString>
        <CharString name="hungarumlaut">
          -285 1702 -21 24 -21 hstemhm
          57 987 hintmask 00000000
          hintmask 01100000
          184 1321 -29 callgsubr
          hintmask 10100000
          -15 callgsubr
          endchar
        </CharString>
        <CharString name="hungarumlaut.cap">
          -358 1689 -21 hstem
          47 963 vstem
          209 1553 -60 callgsubr
        </CharString>
        <CharString name="hyphen">
          -1 callsubr
        </CharString>
        <CharString name="i">
          -66 callsubr
        </CharString>
        <CharString name="i.cy">
          -66 callsubr
        </CharString>
        <CharString name="i.dot">
          -66 callsubr
        </CharString>
        <CharString name="i.uc">
          -599 -62 callsubr
          112 345 hstemhm
          181 361 -341 320 hintmask 11001000
          -63 callsubr
          hintmask 00110000
          152 92 -96 callgsubr
          endchar
        </CharString>
        <CharString name="iacute">
          -670 21 -47 callgsubr
          534 -21 -13 callsubr
          -289 555 hintmask 00101000
          346 1251 -100 callgsubr
          hintmask 11010000
          -23 -1388 rmoveto
          -62 callgsubr
          endchar
        </CharString>
        <CharString name="ibreve">
          -670 21 -21 1140 19 callgsubr
          vstemhm
          174 hmoveto
          -62 callgsubr
          157 157 -92 callgsubr
        </CharString>
        <CharString name="icircumflex">
          -670 21 -47 callgsubr
          116 462 hstemhm
          -65 792 -553 312 hintmask 00110000
          91 1236 -92 callsubr
          hintmask 11001000
          239 -1325 rmoveto
          -62 callgsubr
          endchar
        </CharString>
        <CharString name="idieresis">
          -670 21 -47 callgsubr
          189 353 hstemhm
          -75 810 -561 312 hintmask 00110000
          552 1309 rmoveto
          -90 callgsubr
          -461 hmoveto
          -90 callgsubr
          hintmask 11001000
          83 -1309 rmoveto
          -62 callgsubr
          endchar
        </CharString>
        <CharString name="igrave">
          -670 21 -47 callgsubr
          534 -21 hstemhm
          -105 556 -277 312 hintmask 11001000
          174 hmoveto
          -62 callgsubr
          hintmask 00110000
          128 111 -87 callsubr
        </CharString>
        <CharString name="ij">
          -26 25 callsubr
          148 -21 callsubr
          313 18 callsubr
          hintmask 10100001
          834 1 -91 callgsubr
          hintmask 01100100
          -660 -1140 rmoveto
          -62 callgsubr
          hintmask 00011000
          -82 callsubr
          hintmask 00010010
          651 hmoveto
          106 92 85 103 98 -69 72 -111 -104 -95 -85 -102 -100 79 -71 102 hvcurveto
          endchar
        </CharString>
        <CharString name="ij_acutecomb">
          -26 11 callgsubr
          534 -21 22 -21 -13 callsubr
          70 196 54 555 -527 312 hintmask 1111011010000000
          346 1251 -100 callgsubr
          359 -1670 rmoveto
          -201 vlineto
          -10 25 111 -14 39 hhcurveto
          259 156 165 424 hvcurveto
          1058 -312 -1139 vlineto
          -229 -41 -76 -120 -34 -65 13 9 -18 vhcurveto
          -382 282 rmoveto
          -62 callgsubr
          hintmask 0000100100000000
          781 112 -100 callgsubr
          endchar
        </CharString>
        <CharString name="imacron">
          -670 21 -47 callgsubr
          299 206 hstemhm
          35 591 -452 312 hintmask 11001000
          174 hmoveto
          -62 callgsubr
          hintmask 00110000
          -139 279 -52 callgsubr
          endchar
        </CharString>
        <CharString name="infinity">
          676 178 212 -208 214 433 220 -213 217 hstemhm
          84 270 1295 273 hintmask 00000000
          hintmask 01011100
          568 182 rmoveto
          178 2 139 100 101 118 rrcurveto
          hintmask 10101100
          -124 92 127 -100 238 hhcurveto
          300 179 197 239 219 -147 221 -335 -5 hvcurveto
          -177 -2 -139 -103 -100 -119 rrcurveto
          hintmask 10011100
          126 -94 -130 102 -240 hhcurveto
          -290 -186 -200 -236 hvcurveto
          hintmask 01011100
          -226 163 -214 321 5 vhcurveto
          -214 436 rmoveto
          133 82 85 111 131 113 -138 -125 76 vhcurveto
          -115 -86 -88 -62 -93 hhcurveto
          -172 -74 103 119 hvcurveto
          hintmask 10101100
          790 35 rmoveto
          115 85 85 61 94 hhcurveto
          167 74 -96 -118 -134 -77 -91 -117 -131 -105 138 125 -75 hvcurveto
          endchar
        </CharString>
        <CharString name="integral">
          -248 -518 212 1779 212 hstem
          205 275 128 274 vstem
          196 -193 rmoveto
          -91 -193 rlineto
          -75 37 180 -57 103 hhcurveto
          343 121 268 229 -7 hvcurveto
          -12 398 -380 427 -10 398 rrcurveto
          168 -5 58 103 150 hhcurveto
          94 66 -53 -35 16 hvcurveto
          124 163 rlineto
          71 -34 -100 66 -179 hhcurveto
          -339 -133 -225 -268 7 hvcurveto
          10 -397 382 -431 11 -399 rrcurveto
          -168 5 -46 -103 -150 hhcurveto
          -84 -108 71 42 -29 hvcurveto
          endchar
        </CharString>
        <CharString name="iogonek">
          -670 41 callgsubr
          1140 -20 hstemhm
          148 107 -81 -30 callsubr
          hintmask 01111000
          329 1307 -103 callgsubr
          hintmask 01110100
          -155 -1307 rmoveto
          52 hlineto
          -106 -58 -119 -108 9 -150 -54 callsubr
          hintmask 10111000
          -57 callgsubr
          -7 94 84 63 101 66 rrcurveto
          hintmask 01110100
          53 1140 -27 callsubr
          endchar
        </CharString>
        <CharString name="itilde">
          -670 21 -47 callgsubr
          223 19 callsubr
          -116 876 -586 312 hintmask 11000100
          174 hmoveto
          -62 callgsubr
          hintmask 00000000
          -165 234 -41 callgsubr
          hintmask 00011000
          -99 callgsubr
          hintmask 00101000
          -46 callgsubr
        </CharString>
        <CharString name="j">
          17 callgsubr
          187 358 hstemhm
          139 18 callsubr
          hintmask 11001000
          174 1 -91 callgsubr
          hintmask 00110000
          -56 callgsubr
        </CharString>
        <CharString name="jcircumflex">
          17 callgsubr
          117 462 hstemhm
          -66 792 -552 312 hintmask 11001000
          174 1 -91 callgsubr
          hintmask 00110000
          -84 97 -34 callgsubr
        </CharString>
        <CharString name="k">
          -92 37 callgsubr
          12 callsubr
          vstem
          168 hmoveto
          -32 callsubr
        </CharString>
        <CharString name="kcommaaccent">
          -92 -28 callsubr
          1140 -20 hstemhm
          12 callsubr
          111 -3 callgsubr
          529 -104 callsubr
          hintmask 00111000
          -545 86 rmoveto
          -32 callsubr
        </CharString>
        <CharString name="kgreenlandic">
          -89 37 callgsubr
          -11 callgsubr
          vstem
          174 hmoveto
          312 160 hlineto
          -2 124 131 152 287 -436 rlineto
          355 hlineto
          -443 666 410 474 rlineto
          -349 hlineto
          -396 -516 7 155 rlineto
          361 14 callsubr
          endchar
        </CharString>
        <CharString name="l">
          -658 21 -21 hstem
          180 312 vstem
          180 -19 callgsubr
          endchar
        </CharString>
        <CharString name="lacute">
          -658 21 -21 1527 -20 182 -21 hstemhm
          180 312 -310 512 hintmask 11010000
          180 hmoveto
          312 1527 -27 callsubr
          hintmask 00101000
          148 16 -102 callsubr
          endchar
        </CharString>
        <CharString name="lcaron">
          -374 21 -21 1010 698 hstemhm
          180 312 221 239 hintmask 10100000
          180 -19 callgsubr
          hintmask 01010000
          652 -652 -74 callsubr
        </CharString>
        <CharString name="lcommaaccent">
          -658 -28 callsubr
          hstemhm
          180 312 -220 231 hintmask 00000000
          hintmask 11001000
          210 -104 callsubr
          hintmask 00110000
          -214 86 rmoveto
          -13 callgsubr
          endchar
        </CharString>
        <CharString name="ldot">
          -259 21 -21 681 -21 hstemhm
          180 312 174 389 hintmask 10100000
          180 -19 callgsubr
          hintmask 01010000
          486 -809 rmoveto
          -15 callsubr
        </CharString>
        <CharString name="less">
          48 229 1102 hstem
          197 952 vstem
          197 698 rmoveto
          952 -469 rlineto
          282 vlineto
          -597 262 597 284 rlineto
          274 vlineto
          -952 -479 rlineto
          endchar
        </CharString>
        <CharString name="lessequal">
          48 -1 205 hstem
          175 969 vstem
          175 696 rmoveto
          969 -418 rlineto
          263 vlineto
          -631 232 631 236 rlineto
          262 vlineto
          -969 -420 rlineto
          -852 vmoveto
          969 205 -969 hlineto
          endchar
        </CharString>
        <CharString name="lira">
          266 -16 226 -195 -21 582 150 118 150 266 278 0 -20 hstemhm
          113 1417 hintmask 00000000
          hintmask 10110110
          113 112 rmoveto
          hintmask 01110110
          -88 85 -30 67 79 95 54 38 40 vhcurveto
          hintmask 10111010
          -1 106 177 -101 296 hhcurveto
          327 145 144 214 155 -111 99 -41 24 hvcurveto
          -258 -116 rlineto
          27 -12 48 -60 -64 vvcurveto
          -90 -67 -68 -154 -122 -75 40 22 -97 vhcurveto
          60 55 16 112 3 137 rrcurveto
          294 150 -293 118 315 150 -315 hlineto
          218 79 48 138 109 87 -46 -39 41 vhcurveto
          144 257 rlineto
          45 -61 -111 61 -208 hhcurveto
          -357 -213 -204 -297 hvcurveto
          -43 -177 -150 177 -118 -199 -150 199 -49 vlineto
          -90 -4 -107 -27 -29 vhcurveto
          hintmask 10110110
          -132 -9 -132 -67 -113 vvcurveto
          endchar
        </CharString>
        <CharString name="logicalnot">
          150 639 213 hstem
          991 244 vstem
          245 639 rmoveto
          746 -316 244 529 -990 hlineto
          endchar
        </CharString>
        <CharString name="lozenge">
          -16 21 -21 1536 -20 hstem
          70 1175 vstem
          655 hmoveto
          5 hlineto
          585 762 rlineto
          13 vlineto
          -585 761 rlineto
          -4 hlineto
          -586 -761 rlineto
          -13 vlineto
          586 -399 rmoveto
          -299 403 rlineto
          6 vlineto
          299 384 rlineto
          3 hlineto
          299 -384 rlineto
          -3 vlineto
          -299 -406 rlineto
          endchar
        </CharString>
        <CharString name="lslash">
          -658 21 -21 1157 -20 hstem
          180 312 vstem
          180 hmoveto
          312 884 hlineto
          180 67 rlineto
          206 vlineto
          -180 -70 rlineto
          575 -312 -695 vlineto
          -162 -62 rlineto
          -195 vlineto
          162 59 rlineto
          endchar
        </CharString>
        <CharString name="m">
          717 21 -21 896 264 -20 -20 40 19 callgsubr
          390 312 385 -30 callsubr
          hintmask 10011110
          174 hmoveto
          312 hlineto
          hintmask 11001110
          -55 callsubr
          hintmask 10101110
          -24 callgsubr
          endchar
        </CharString>
        <CharString name="macron">
          -629 1420 31 callgsubr
          1420 -52 callgsubr
          endchar
        </CharString>
        <CharString name="macron.cap">
          -629 1687 31 callgsubr
          1687 -52 callgsubr
          endchar
        </CharString>
        <CharString name="minus">
          -1 callsubr
        </CharString>
        <CharString name="minute">
          -638 1190 636 hstem
          161 410 vstem
          161 1190 5 callsubr
          endchar
        </CharString>
        <CharString name="mu">
          -64 callsubr
        </CharString>
        <CharString name="multiply">
          50 1160 -20 hstem
          168 1047 vstem
          339 237 rmoveto
          351 368 351 -368 171 171 -356 369 359 383 -171 160 -351 -378 -354 378 -171 -160 359 -384 -359 -368 rlineto
          endchar
        </CharString>
        <CharString name="n">
          22 21 -47 callgsubr
          39 19 callgsubr
          392 -30 callsubr
          hintmask 10111000
          174 hmoveto
          -95 callsubr
          hintmask 11011000
          -24 callgsubr
          endchar
        </CharString>
        <CharString name="nacute">
          22 20 callsubr
          515 -21 -13 callsubr
          142 555 -305 312 hintmask 00101000
          777 1251 -100 callgsubr
          hintmask 00000000
          -454 -1388 rmoveto
          -95 callsubr
          hintmask 11010100
          -24 callgsubr
          endchar
        </CharString>
        <CharString name="napostrophe">
          22 -28 callsubr
          1159 19 callgsubr
          130 231 31 -30 callsubr
          hintmask 11000100
          554 -104 callsubr
          hintmask 00000000
          -564 86 rmoveto
          -95 callsubr
          hintmask 00111010
          -24 callgsubr
          endchar
        </CharString>
        <CharString name="nbspace">
          -661 endchar
        </CharString>
        <CharString name="ncaron">
          22 20 callsubr
          111 462 -13 callsubr
          -124 792 -276 312 hintmask 00101000
          648 1250 -81 callgsubr
          hintmask 00000000
          -188 -1623 rmoveto
          -95 callsubr
          hintmask 11010100
          -24 callgsubr
          endchar
        </CharString>
        <CharString name="ncommaaccent">
          22 -28 callsubr
          1159 19 callgsubr
          130 231 31 -30 callsubr
          hintmask 11000100
          554 -104 callsubr
          hintmask 00000000
          -564 86 rmoveto
          -95 callsubr
          hintmask 00111010
          -24 callgsubr
          endchar
        </CharString>
        <CharString name="nine">
          97 234 239 579 220 hstem
          135 314 507 332 vstem
          320 -210 rmoveto
          83 -184 rlineto
          368 60 517 400 604 vvcurveto
          327 -200 275 -359 -397 -197 -247 -317 -254 156 -220 279 160 98 54 40 35 vhcurveto
          -60 178 rlineto
          -15 -33 -35 -18 -86 hhcurveto
          -115 -85 93 224 156 89 106 160 191 71 -198 -275 -4 hvcurveto
          -4 -285 -236 -405 -396 -99 rrcurveto
          endchar
        </CharString>
        <CharString name="notequal">
          93 203 1116 -908 216 296 216 hstemhm
          251 921 -766 591 hintmask 10001000
          406 203 rmoveto
          192 hlineto
          118 332 7 15 168 481 6 13 100 275 rlineto
          -194 hlineto
          -99 -274 -6 -14 -168 -480 -6 -14 rlineto
          hintmask 01110000
          -273 386 10 callsubr
        </CharString>
        <CharString name="ntilde">
          22 21 -47 callgsubr
          39 -20 204 19 callsubr
          174 312 -171 876 -313 -30 callsubr
          hintmask 10100101
          174 hmoveto
          -95 callsubr
          hintmask 11000101
          -24 callgsubr
          hintmask 00000000
          266 234 -41 callgsubr
          hintmask 00001010
          -99 callgsubr
          hintmask 00010010
          -46 callgsubr
        </CharString>
        <CharString name="numbersign">
          315 21 -21 326 210 320 202 hstem
          196 1253 vstem
          352 hmoveto
          258 hlineto
          31 326 rlineto
          279 hlineto
          -29 -326 rlineto
          254 hlineto
          31 326 rlineto
          229 210 -209 hlineto
          30 320 rlineto
          223 202 -204 hlineto
          30 315 rlineto
          -259 hlineto
          -29 -315 rlineto
          -275 hlineto
          30 315 rlineto
          -261 hlineto
          -30 -315 rlineto
          -217 -202 198 hlineto
          -30 -320 rlineto
          -206 -210 186 hlineto
          279 210 rmoveto
          31 320 rlineto
          276 hlineto
          -29 -320 rlineto
          endchar
        </CharString>
        <CharString name="o">
          -32 callgsubr
          hstem
          96 323 464 323 vstem
          -76 callgsubr
          endchar
        </CharString>
        <CharString name="oacute">
          -32 callgsubr
          498 -21 22 callgsubr
          108 555 -199 323 hintmask 00101000
          676 1251 -100 callgsubr
          hintmask 11010100
          -431 -794 -105 callsubr
          endchar
        </CharString>
        <CharString name="obreve">
          -32 callgsubr
          22 callgsubr
          464 323 vstemhm
          -76 callgsubr
          13 1093 -92 callgsubr
        </CharString>
        <CharString name="ocircumflex">
          -32 callgsubr
          80 462 22 callgsubr
          -154 792 -174 323 hintmask 00101000
          421 1236 -92 callsubr
          hintmask 11010100
          -169 -731 -105 callsubr
          endchar
        </CharString>
        <CharString name="odieresis">
          -32 callgsubr
          153 353 22 callgsubr
          -176 834 -194 323 hintmask 00101000
          894 1309 rmoveto
          -90 callgsubr
          -485 hmoveto
          -90 callgsubr
          hintmask 11010100
          -313 -715 -105 callsubr
          endchar
        </CharString>
        <CharString name="oe">
          632 -16 220 -220 232 279 173 266 222 22 callgsubr
          hintmask 00000000
          hintmask 10111000
          96 594 rmoveto
          -325 -5 142 -285 402 hhcurveto
          160 133 48 93 95 hvcurveto
          -92 88 128 -49 166 hhcurveto
          177 171 53 61 75 hvcurveto
          hintmask 01111000
          -51 177 rlineto
          -33 -60 -152 -26 -81 hhcurveto
          -176 -116 85 194 -13 hvcurveto
          675 hlineto
          8 51 3 77 86 vvcurveto
          332 -217 117 -236 -2 vhcurveto
          -161 -1 -126 -53 -90 -89 rrcurveto
          88 -82 -122 55 -175 hhcurveto
          hintmask 10111000
          -324 -231 -196 -366 -5 hvcurveto
          1089 74 rmoveto
          202 22 80 64 115 hhcurveto
          140 43 -99 -167 -10 hvcurveto
          -933 -464 rmoveto
          -163 2 -60 181 199 vvcurveto
          221 65 128 165 -1 vhcurveto
          164 -2 60 -177 -194 vvcurveto
          -229 -66 -130 -165 2 vhcurveto
          endchar
        </CharString>
        <CharString name="ogonek">
          -678 -515 177 hstemhm
          62 235 -235 514 hintmask 00000000
          hintmask 10100000
          294 -7 rmoveto
          hintmask 11000000
          -113 -59 -128 -110 9 -151 6 -126 125 -63 128 1 rrcurveto
          110 90 32 38 55 hvcurveto
          -9 135 rlineto
          -10 -37 -59 -18 -53 hhcurveto
          -74 -44 25 59 -3 hvcurveto
          -7 109 125 101 117 63 -119 -10 rcurveline
          endchar
        </CharString>
        <CharString name="ograve">
          -32 callgsubr
          498 -21 22 callgsubr
          -194 556 102 323 hintmask 11010100
          -76 callgsubr
          hintmask 00101000
          -16 1047 -87 callsubr
        </CharString>
        <CharString name="ohungarumlaut">
          -32 callgsubr
          559 -21 24 -21 22 callgsubr
          -122 987 -401 323 hintmask 00000000
          hintmask 00010100
          424 1334 -29 callgsubr
          hintmask 00100100
          -15 callgsubr
          hintmask 11001010
          -720 -833 -105 callsubr
          endchar
        </CharString>
        <CharString name="omacron">
          -32 callgsubr
          263 206 22 callgsubr
          -54 591 -73 323 hintmask 00101000
          365 1419 -52 callgsubr
          hintmask 11010100
          -269 -1031 -105 callsubr
          endchar
        </CharString>
        <CharString name="one">
          -326 21 -21 hstem
          391 322 vstem
          391 hmoveto
          321 hlineto
          2 1253 -154 25 -77 -63 -222 -113 -134 -35 rlinecurve
          26 -185 79 14 80 14 79 19 rlinecurve
          endchar
        </CharString>
        <CharString name="one.numr">
          -264 673 1031 hstem
          411 279 vstem
          411 673 -50 callgsubr
          endchar
        </CharString>
        <CharString name="onehalf">
          1229 -2 231 -208 -21 673 1031 -867 204 489 -20 hstemhm
          444 279 48 782 -75 890 -346 293 -16 callgsubr
          hintmask 1001000100000000
          1551 -2 15 callsubr
          hintmask 1001000010000000
          -61 callgsubr
          hintmask 0010010000000000
          -1064 521 -50 callgsubr
          hintmask 0100101000000000
          327 -1402 rmoveto
          0 callsubr
        </CharString>
        <CharString name="onequarter">
          1229 21 -21 195 192 286 1031 -174 -20 hstemhm
          443 279 49 782 387 256 hintmask 01000010
          1395 195 -68 callgsubr
          hintmask 10010100
          -572 -289 rmoveto
          5 callgsubr
          hintmask 00101000
          -867 -857 -50 callgsubr
          endchar
        </CharString>
        <CharString name="onesuperior">
          -264 673 1031 hstem
          411 279 vstem
          411 673 -50 callgsubr
          endchar
        </CharString>
        <CharString name="ordfeminine">
          -263 667 191 262 146 161 189 hstem
          120 255 298 260 vstem
          413 667 rmoveto
          117 116 57 41 39 hvcurveto
          -13 vlineto
          -81 43 6 75 vhcurveto
          130 630 hlineto
          231 -134 78 -253 -159 -202 -76 -35 -38 vhcurveto
          56 -155 rlineto
          31 45 158 46 92 hhcurveto
          123 52 -18 -108 hvcurveto
          -35 vlineto
          -114 -128 -11 -44 -119 hvcurveto
          -110 -44 -82 -87 -140 vvcurveto
          -164 110 -109 183 vhcurveto
          84 191 rmoveto
          -64 -58 32 68 54 16 40 59 34 hvcurveto
          32 60 78 2 85 hhcurveto
          -213 vlineto
          -15 -19 -74 -34 -83 hhcurveto
          endchar
        </CharString>
        <CharString name="ordmasculine">
          -265 669 191 567 191 hstem
          83 267 365 267 vstem
          529 669 rmoveto
          231 217 131 336 5 hvcurveto
          284 4 -147 198 -287 hhcurveto
          -225 -239 -126 -336 -5 hvcurveto
          -294 -3 155 -193 294 hhcurveto
          12 191 rmoveto
          -129 -2 -62 118 180 vvcurveto
          196 71 73 120 2 vhcurveto
          120 2 54 -113 -182 vvcurveto
          -194 -54 -78 -120 -2 vhcurveto
          endchar
        </CharString>
        <CharString name="oslash">
          29 callsubr
          22 callgsubr
          -323 1110 -323 323 hintmask 00000000
          hintmask 01010100
          312 -188 rmoveto
          125 -32 76 215 rlineto
          hintmask 10010100
          -7 39 43 -4 46 hhcurveto
          hintmask 10010010
          -11 callsubr
          hintmask 10101010
          -52 callsubr
          endchar
        </CharString>
        <CharString name="oslashacute">
          29 callsubr
          529 -21 22 callgsubr
          -323 1110 -833 555 -45 323 -16 callgsubr
          hintmask 0101001000000000
          312 -188 rmoveto
          125 -32 76 215 rlineto
          hintmask 1001001000000000
          -7 39 43 -4 46 hhcurveto
          hintmask 1001000010000000
          -11 callsubr
          hintmask 1010010010000000
          -52 callsubr
          hintmask 0000100100000000
          -68 1039 -100 callgsubr
          endchar
        </CharString>
        <CharString name="otilde">
          -32 callgsubr
          187 19 callsubr
          96 323 -205 876 -207 323 hintmask 11001010
          -76 callgsubr
          hintmask 00000000
          -309 1170 -41 callgsubr
          hintmask 00010100
          -99 callgsubr
          hintmask 00100100
          -46 callgsubr
        </CharString>
        <CharString name="p">
          28 callgsubr
          hstemhm
          12 callsubr
          438 327 hintmask 00000000
          hintmask 11011100
          13 callsubr
          hintmask 11101100
          -2 callgsubr
          -183 -97 -80 -52 -52 vhcurveto
          hintmask 11011100
          27 callgsubr
          hintmask 11101100
          603 -35 callgsubr
          -246 -2 -112 -138 -148 hhcurveto
          hintmask 11011100
          -69 -66 9 37 -41 hvcurveto
          endchar
        </CharString>
        <CharString name="paragraph">
          80 21 -21 -44 callgsubr
          189 hstem
          496 252 202 252 vstem
          496 hmoveto
          252 -44 callgsubr
          202 -1522 252 1691 hlineto
          3 -129 -309 17 -106 hhcurveto
          -399 -197 -164 -299 -333 160 -138 274 hvcurveto
          endchar
        </CharString>
        <CharString name="parenleft">
          -495 1672 -21 hstem
          130 277 vstem
          599 -360 rmoveto
          181 116 rlineto
          -100 72 -273 294 585 vvcurveto
          559 297 329 76 56 vhcurveto
          -181 116 rlineto
          -116 -68 -353 -370 -612 vvcurveto
          -705 378 -317 91 -55 vhcurveto
          endchar
        </CharString>
        <CharString name="parenright">
          -495 -248 21 hstem
          418 277 vstem
          226 1784 rmoveto
          -181 -116 rlineto
          100 -72 273 -294 -585 vvcurveto
          -559 -297 -329 -76 -56 vhcurveto
          181 -116 rlineto
          116 68 353 370 612 vvcurveto
          705 -378 317 -91 55 vhcurveto
          endchar
        </CharString>
        <CharString name="partialdiff">
          85 -30 222 699 205 399 231 hstem
          126 322 542 313 vstem
          126 495 rmoveto
          -305 7 250 -220 286 hhcurveto
          444 190 323 527 458 -216 448 -540 -140 -158 -43 -83 -110 hvcurveto
          103 -175 rlineto
          42 64 107 28 88 hhcurveto
          288 153 -183 -275 39 hvcurveto
          34 -68 -80 25 -103 hhcurveto
          -316 -298 -171 -430 10 hvcurveto
          322 25 rmoveto
          262 -7 117 109 176 hhcurveto
          104 74 -23 -50 78 hvcurveto
          -89 vlineto
          -182 -30 -355 -242 -206 -58 139 189 -6 vhcurveto
          endchar
        </CharString>
        <CharString name="percent">
          858 -18 callgsubr
          -16 callgsubr
          hintmask 0101101111000000
          675 hmoveto
          246 hlineto
          hintmask 0110011111000000
          1 callsubr
          hintmask 0101101111000000
          8 callsubr
          hintmask 0110011111000000
          9 callsubr
          hintmask 0101101111000000
          35 callsubr
          hintmask 0110011111000000
          -153 -59 -93 -106 vhcurveto
          hintmask 1001101111000000
          749 -368 -69 callsubr
          endchar
        </CharString>
        <CharString name="period">
          -689 -1 -21 hstem
          126 389 vstem
          126 171 rmoveto
          -15 callsubr
        </CharString>
        <CharString name="periodcentered">
          -689 607 -21 hstem
          126 389 vstem
          126 779 rmoveto
          -15 callsubr
        </CharString>
        <CharString name="perthousand">
          1781 -18 callgsubr
          99 249 325 250 hintmask 1001000000110000
          2184 456 -69 callsubr
          -16 callgsubr
          -1758 -466 rmoveto
          246 hlineto
          hintmask 0101101111000000
          1 callsubr
          hintmask 0110011111000000
          8 callsubr
          hintmask 0101101111000000
          9 callsubr
          hintmask 0110011111000000
          35 callsubr
          hintmask 0101101111000000
          -153 -59 -93 -106 vhcurveto
          hintmask 0110011111000000
          749 -368 -69 callsubr
          endchar
        </CharString>
        <CharString name="peseta">
          189 21 -21 458 252 208 147 225 248 -16 -20 hstemhm
          33 1478 hintmask 00000000
          hintmask 11101100
          197 hmoveto
          367 461 hlineto
          -1 38 48 -2 98 hhcurveto
          370 212 160 300 35 hvcurveto
          146 147 -143 hlineto
          hintmask 11110100
          349 -20 -218 124 -349 hhcurveto
          hintmask 11101100
          -161 -138 -16 -112 hhcurveto
          -173 -457 -164 -147 164 hlineto
          367 147 rmoveto
          hintmask 11110100
          212 vlineto
          53 8 66 4 57 1 170 2 85 -84 17 -143 rrcurveto
          -448 -347 rmoveto
          200 445 vlineto
          -151 -27 -100 -57 -133 hhcurveto
          -86 -46 3 5 -53 hvcurveto
          endchar
        </CharString>
        <CharString name="pi">
          270 -24 226 -205 -21 911 253 hstemhm
          67 1472 hintmask 00000000
          hintmask 01110000
          158 114 rmoveto
          176 -138 79 8 62 32 41 36 rlinecurve
          90 83 50 65 12 228 24 459 rcurveline
          273 hlineto
          -54 -608 rlineto
          -170 -14 59 -133 176 hhcurveto
          214 143 125 118 43 hvcurveto
          -115 122 rlineto
          hintmask 10110000
          -49 -37 -61 -90 -79 hhcurveto
          -38 -25 41 86 4 hvcurveto
          25 558 rlineto
          16 hlineto
          209 97 92 236 11 hvcurveto
          -194 hlineto
          -54 -18 -27 -21 -82 hhcurveto
          -809 hlineto
          -161 -75 -44 -72 -54 hvcurveto
          -32 -45 -18 -67 -2 -31 120 -77 rcurveline
          34 38 47 49 102 hhcurveto
          65 hlineto
          -42 -400 -14 -140 -26 -104 -100 -77 rlinecurve
          hintmask 01110000
          -39 -29 -43 -19 -17 -4 rrcurveto
          endchar
        </CharString>
        <CharString name="plus">
          73 656 237 hstem
          578 246 vstem
          578 260 -40 callsubr
        </CharString>
        <CharString name="plusminus">
          73 0 198 458 237 hstemhm
          243 909 -574 246 hintmask 10100000
          243 hmoveto
          909 198 -909 hlineto
          hintmask 01010000
          335 62 -40 callsubr
        </CharString>
        <CharString name="product">
          378 1291 230 hstem
          321 318 420 318 vstem
          321 -171 rmoveto
          318 1462 420 -1462 318 1462 hlineto
          227 1 rlineto
          230 -1500 -230 vlineto
          217 -1 rlineto
          endchar
        </CharString>
        <CharString name="q">
          10 -485 -21 490 -10 callgsubr
          -16 -20 hstemhm
          95 327 438 -30 callsubr
          hintmask 10110110
          95 533 rmoveto
          -370 212 -179 242 166 96 65 52 55 vhcurveto
          -6 -240 rlineto
          -367 312 vlineto
          hintmask 10101110
          1646 vlineto
          hintmask 10110110
          -225 -34 rlineto
          23 -57 -109 27 -106 hhcurveto
          -347 -233 -244 -379 hvcurveto
          hintmask 11010110
          550 -306 rmoveto
          -135 -90 78 254 2 hvcurveto
          253 2 112 122 148 hhcurveto
          69 66 -4 -29 41 hvcurveto
          -613 vlineto
          -33 -47 -81 -28 -87 hhcurveto
          endchar
        </CharString>
        <CharString name="question">
          -273 -1 -21 1613 255 hstemhm
          126 860 -329 329 18 callgsubr
          337 506 rmoveto
          238 hlineto
          -24 88 -18 42 6 74 rrcurveto
          hintmask 11010000
          20 266 427 47 372 vvcurveto
          230 5 -148 221 -448 hhcurveto
          -127 -102 -25 -24 -40 hvcurveto
          -232 vlineto
          7 31 52 19 123 hhcurveto
          223 102 -70 -141 -263 -402 -32 4 -310 hvcurveto
          hintmask 11100000
          2 -131 39 -83 37 -55 rrcurveto
          -31 -352 rmoveto
          -101 1 77 -75 98 hhcurveto
          103 89 89 105 -1 hvcurveto
          99 -1 -67 76 -108 hhcurveto
          -101 -92 -89 -104 2 hvcurveto
          endchar
        </CharString>
        <CharString name="questiondown">
          -273 -322 255 1592 21 hstemhm
          61 329 -329 860 hintmask 00000000
          hintmask 11010000
          710 1018 rmoveto
          -238 hlineto
          24 -88 18 -42 -6 -74 rrcurveto
          hintmask 11100000
          -20 -266 -427 -47 -372 vvcurveto
          -230 -5 148 -221 448 hhcurveto
          127 102 25 24 40 hvcurveto
          232 vlineto
          -7 -31 -52 -19 -123 hhcurveto
          -223 -102 70 141 263 402 32 -4 310 hvcurveto
          hintmask 11010000
          -2 131 -39 83 -37 55 rrcurveto
          31 352 rmoveto
          101 -1 -77 75 -98 hhcurveto
          -103 -89 -89 -105 1 hvcurveto
          -99 1 67 -76 108 hhcurveto
          101 92 89 104 -2 hvcurveto
          endchar
        </CharString>
        <CharString name="quotedbl">
          -85 966 719 hstemhm
          216 305 203 305 hintmask 11000000
          254 966 12 callgsubr
          hintmask 10100000
          546 -719 12 callgsubr
          endchar
        </CharString>
        <CharString name="quotedblbase">
          -222 -521 26 callgsubr
          -521 -83 callsubr
          hintmask 10100000
          678 -83 -83 callsubr
          endchar
        </CharString>
        <CharString name="quotedblleft">
          -222 940 796 hstemhm
          94 264 284 264 hintmask 11000000
          279 940 rmoveto
          -54 callgsubr
          hintmask 10100000
          548 hmoveto
          -54 callgsubr
          endchar
        </CharString>
        <CharString name="quotedblright">
          -222 940 26 callgsubr
          940 -83 callsubr
          hintmask 10100000
          678 -83 -83 callsubr
          endchar
        </CharString>
        <CharString name="quoteleft">
          36 callsubr
          94 264 vstem
          279 940 rmoveto
          -54 callgsubr
          endchar
        </CharString>
        <CharString name="quotereversed">
          36 callsubr
          94 264 vstem
          298 940 rmoveto
          130 83 rlineto
          28 vlineto
          -44 50 -26 126 92 vvcurveto
          112 50 89 40 21 vhcurveto
          71 vlineto
          -169 124 rlineto
          -98 -35 -87 -126 -185 vvcurveto
          -241 139 -159 65 -50 vhcurveto
          endchar
        </CharString>
        <CharString name="quoteright">
          36 callsubr
          183 265 vstem
          244 940 -83 callsubr
          endchar
        </CharString>
        <CharString name="quotesinglbase">
          -770 -533 796 hstem
          183 265 vstem
          244 -533 -83 callsubr
          endchar
        </CharString>
        <CharString name="quotesingle">
          -593 966 719 hstem
          216 305 vstem
          254 966 12 callgsubr
          endchar
        </CharString>
        <CharString name="r">
          -404 21 -47 callgsubr
          25 -20 34 -20 hstemhm
          158 -30 callsubr
          hintmask 10011000
          158 hmoveto
          -33 callgsubr
          hintmask 10101000
          301 vlineto
          hintmask 10011000
          -21 callgsubr
          hintmask 11001000
          8 callgsubr
        </CharString>
        <CharString name="racute">
          41 callsubr
          516 -21 hstemhm
          158 312 -62 555 hintmask 00010100
          557 -38 callsubr
          hintmask 00000000
          -250 -1389 rmoveto
          -33 callgsubr
          hintmask 10101000
          301 vlineto
          hintmask 11001000
          -21 callgsubr
          hintmask 10101000
          8 callgsubr
        </CharString>
        <CharString name="radical">
          312 -354 2224 hstem
          109 1578 vstem
          216 353 rmoveto
          158 81 335 -788 rlineto
          261 hlineto
          717 2224 rlineto
          -308 hlineto
          -542 -1851 -249 697 rlineto
          -204 hlineto
          -275 -142 rlineto
          endchar
        </CharString>
        <CharString name="rcaron">
          41 callsubr
          112 462 hstemhm
          142 792 -776 312 hintmask 00011000
          428 -5 callgsubr
          hintmask 00000000
          16 -1624 rmoveto
          -33 callgsubr
          hintmask 10100100
          301 vlineto
          hintmask 11000100
          -21 callgsubr
          hintmask 10100100
          8 callgsubr
        </CharString>
        <CharString name="rcommaaccent">
          -404 -28 callsubr
          1145 -20 34 -20 hstemhm
          158 312 -212 231 hintmask 00000000
          hintmask 11000010
          196 -104 callsubr
          hintmask 00000000
          -222 86 rmoveto
          -33 callgsubr
          hintmask 00101100
          301 vlineto
          hintmask 00110100
          -21 callgsubr
          hintmask 00101100
          8 callgsubr
        </CharString>
        <CharString name="registered">
          763 81 130 620 149 309 160 263 128 hstem
          172 142 395 212 274 219 364 143 vstem
          172 962 rmoveto
          -487 388 -394 486 486 389 394 487 486 -389 392 -486 -486 -388 -392 -486 vhcurveto
          142 hmoveto
          413 317 337 415 415 317 -337 -413 -414 -317 -337 -415 -415 -317 337 414 vhcurveto
          395 -481 rmoveto
          212 350 hlineto
          23 53 0 1 13 hvcurveto
          103 -38 31 -145 41 -81 19 -36 11 -28 21 -22 rrcurveto
          246 hlineto
          -36 45 -12 24 -18 30 -55 96 -39 130 -98 50 rrcurveto
          146 45 44 128 144 vvcurveto
          159 -115 116 -240 -132 -54 -6 1 -75 vhcurveto
          -89 hlineto
          212 -457 rmoveto
          291 vlineto
          12 36 26 -1 37 hhcurveto
          131 2 44 -53 -93 vvcurveto
          -108 -53 -57 -103 -37 -52 1 6 -29 vhcurveto
          endchar
        </CharString>
        <CharString name="ring">
          -563 1314 152 276 146 hstem
          42 21 callgsubr
          vstem
          380 1314 -67 callgsubr
          endchar
        </CharString>
        <CharString name="ring.cap">
          -563 1416 152 256 146 hstem
          42 21 callgsubr
          vstem
          380 1416 -68 callsubr
        </CharString>
        <CharString name="s">
          -16 7 callgsubr
          38 callsubr
          -841 298 236 307 18 callgsubr
          115 72 -20 callsubr
          hintmask 11011000
          -102 callgsubr
          endchar
        </CharString>
        <CharString name="sacute">
          -16 7 callgsubr
          498 -21 38 callsubr
          -555 555 hintmask 00101000
          554 1251 -100 callgsubr
          hintmask 00000000
          -290 -1316 -20 callsubr
          hintmask 11010000
          -102 callgsubr
          endchar
        </CharString>
        <CharString name="scaron">
          -16 7 callgsubr
          94 462 38 callsubr
          -821 792 hintmask 00101000
          425 1250 -81 callgsubr
          hintmask 00000000
          -24 -1551 -20 callsubr
          hintmask 11010000
          -102 callgsubr
          endchar
        </CharString>
        <CharString name="scircumflex">
          -16 7 callgsubr
          80 462 38 callsubr
          -817 792 hintmask 00101000
          299 1236 -92 callsubr
          hintmask 00000000
          -28 -1253 -20 callsubr
          hintmask 11010000
          -102 callgsubr
          endchar
        </CharString>
        <CharString name="second">
          -167 1190 636 hstemhm
          161 410 61 410 hintmask 11000000
          161 1190 5 callsubr
          hintmask 10100000
          362 -636 5 callsubr
          endchar
        </CharString>
        <CharString name="section">
          72 -193 223 1420 223 hstemhm
          203 268 -217 299 320 299 -223 262 hintmask 00000000
          hintmask 11100100
          275 -100 rmoveto
          -43 62 157 -50 187 hhcurveto
          hintmask 11101000
          220 271 98 255 104 -35 77 -54 58 hvcurveto
          hintmask 11010100
          78 79 50 94 106 426 -658 6 212 vvcurveto
          93 82 34 110 1 vhcurveto
          169 1 94 -45 43 -31 42 225 rcurveline
          34 -58 -121 39 -187 hhcurveto
          -208 -265 -94 -257 -115 46 -81 68 -62 hvcurveto
          hintmask 11101000
          -99 -81 -66 -103 -113 -428 670 22 -196 vvcurveto
          -100 -90 -34 -120 -1 vhcurveto
          -172 -1 -123 57 -51 39 rrcurveto
          154 693 rmoveto
          46 22 52 27 46 vhcurveto
          hintmask 11100100
          196 -101 233 -55 -179 vvcurveto
          -33 -11 -41 -17 -41 vhcurveto
          hintmask 11101000
          -201 98 -249 33 175 vvcurveto
          endchar
        </CharString>
        <CharString name="semicolon">
          -689 -485 -21 1264 -21 hstemhm
          126 389 -378 406 -289 289 hintmask 00000000
          hintmask 10010000
          137 73 rmoveto
          hintmask 10001000
          -26 callsubr
          hintmask 01100000
          -11 770 rmoveto
          -15 callsubr
        </CharString>
        <CharString name="seven">
          -44 996 274 -116 -20 hstemhm
          106 1078 hintmask 00000000
          hintmask 01100000
          264 -302 rmoveto
          318 -92 602 1548 rlineto
          hintmask 10100000
          -77 117 rlineto
          -1001 -274 hlineto
          730 -1 rlineto
          hintmask 01100000
          -135 -330 -224 -525 -213 -443 rrcurveto
          endchar
        </CharString>
        <CharString name="six">
          84 -16 218 576 239 hstem
          127 334 508 316 vstem
          127 586 rmoveto
          -327 209 -275 354 408 187 268 302 251 -156 212 -277 -151 -104 -55 -39 -37 vhcurveto
          63 -181 rlineto
          15 29 49 21 78 hhcurveto
          102 88 -70 -225 -168 -80 -113 -170 -196 -66 208 265 4 hvcurveto
          5 293 231 367 380 98 -76 187 rcurveline
          -368 -58 -506 -387 -589 vvcurveto
          endchar
        </CharString>
        <CharString name="slash">
          -466 -363 1962 hstem
          24 816 vstem
          24 -363 rmoveto
          255 hlineto
          561 1962 rlineto
          -255 hlineto
          endchar
        </CharString>
        <CharString name="space">
          -661 endchar
        </CharString>
        <CharString name="sterling">
          246 -18 210 -179 -21 725 181 396 244 hstemhm
          416 320 428 289 hintmask 00000000
          hintmask 10111100
          114 116 rmoveto
          hintmask 01111100
          -90 80 -34 62 80 86 52 46 41 vhcurveto
          hintmask 10111100
          3 122 117 -111 292 hhcurveto
          308 151 142 224 169 -92 61 -49 28 hvcurveto
          -211 -110 rlineto
          32 -22 31 -56 -70 vvcurveto
          -93 -66 -63 -160 -138 -69 32 21 -105 vhcurveto
          64 57 46 79 173 vvcurveto
          163 310 181 -310 65 vlineto
          313 122 18 105 93 75 -48 -34 44 vhcurveto
          126 229 rlineto
          50 -77 -125 47 -165 hhcurveto
          -348 -170 -216 -297 hvcurveto
          -127 -176 -181 176 -182 vlineto
          -63 -7 -136 -28 -40 vhcurveto
          -148 -4 -119 -67 -109 vvcurveto
          endchar
        </CharString>
        <CharString name="summation">
          133 -170 218 1245 229 -80 80 hstemhm
          152 1144 hintmask 00000000
          hintmask 11010000
          152 -106 rmoveto
          26 -64 rlineto
          1118 218 -712 hlineto
          426 638 -433 607 rlineto
          678 229 -1073 hlineto
          hintmask 10110000
          -30 -80 551 -762 rlineto
          endchar
        </CharString>
        <CharString name="t">
          -417 16 callsubr
          hstemhm
          211 -30 callsubr
          hintmask 01110000
          211 339 -36 callsubr
          hintmask 10110000
          -38 175 rlineto
          6 callsubr
          -70 callgsubr
          vlineto
          endchar
        </CharString>
        <CharString name="tbar">
          -417 -16 235 -214 -21 539 214 187 216 hstemhm
          211 -30 callsubr
          hintmask 01111000
          211 339 -36 callsubr
          hintmask 10111000
          -38 175 rlineto
          6 callsubr
          -96 -34 16 231 hvcurveto
          57 316 214 -316 187 309 216 -309 260 -190 vlineto
          -27 -74 -29 -79 -19 -46 -27 -65 -57 -14 -100 -29 rrcurveto
          -169 137 -187 -130 -214 130 vlineto
          endchar
        </CharString>
        <CharString name="tcaron">
          -272 16 callsubr
          82 698 hstemhm
          211 312 291 239 hintmask 00000000
          hintmask 01101000
          211 339 -36 callsubr
          hintmask 10101000
          -38 175 rlineto
          6 callsubr
          -70 callgsubr
          vlineto
          hintmask 00010100
          722 298 -74 callsubr
        </CharString>
        <CharString name="thorn">
          10 -486 -21 484 216 -184 -21 935 233 hstemhm
          12 callsubr
          438 327 hintmask 00000000
          hintmask 10111000
          481 -12 rmoveto
          hintmask 11011100
          -7 55 58 -4 55 hhcurveto
          354 242 256 379 -2 callgsubr
          -169 -96 -68 -52 -54 hvcurveto
          8 188 rlineto
          437 -312 -2168 318 338 vlineto
          -6 401 rmoveto
          620 -35 callgsubr
          -252 -2 -112 -142 -148 hhcurveto
          -89 -61 11 28 -26 hvcurveto
          endchar
        </CharString>
        <CharString name="three">
          -160 -335 227 1143 246 hstemhm
          77 1007 -401 321 -252 332 18 callgsubr
          122 -85 rmoveto
          1 -204 rlineto
          -12 38 88 -34 155 hhcurveto
          hintmask 11001000
          408 272 219 286 154 -99 185 -250 22 hvcurveto
          hintmask 11010000
          149 70 120 128 188 vvcurveto
          218 -161 146 -324 -192 -192 -90 -62 -58 vhcurveto
          93 -195 rlineto
          44 64 91 57 151 hhcurveto
          118 91 -45 -115 -2 hvcurveto
          -2 -92 -52 -73 -100 -56 -60 -31 -95 -30 -89 -19 42 -198 rcurveline
          139 36 rlineto
          hintmask 11001000
          211 8 75 -115 -138 vvcurveto
          -182 -191 -93 -251 vhcurveto
          hintmask 11100000
          -60 -63 9 14 -65 hvcurveto
          endchar
        </CharString>
        <CharString name="three.numr">
          -71 callgsubr
        </CharString>
        <CharString name="threequarters">
          1229 195 192 201 200 733 192 hstemhm
          114 794 -321 260 -213 274 1032 256 hintmask 10000010
          1395 195 -68 callgsubr
          hintmask 00000000
          -1188 346 rmoveto
          -13 61 84 -34 137 hhcurveto
          hintmask 01110000
          326 145 162 206 117 -88 113 -162 9 hvcurveto
          hintmask 01100100
          151 81 38 94 100 vvcurveto
          135 -107 108 -262 -109 -178 -48 -65 -77 vhcurveto
          66 -157 rlineto
          53 86 96 25 67 hhcurveto
          98 59 -33 -66 1 hvcurveto
          2 -74 -70 -60 -93 -28 -38 -9 -38 -7 -49 -7 -1 -185 rcurveline
          159 33 rlineto
          hintmask 01101000
          130 -22 45 -58 -62 vvcurveto
          -99 -68 -55 -172 -1 vhcurveto
          -120 -61 16 15 -64 hvcurveto
          hintmask 01100100
          622 -819 rmoveto
          0 callsubr
        </CharString>
        <CharString name="threesuperior">
          -71 callgsubr
        </CharString>
        <CharString name="tilde">
          -393 1344 19 callsubr
          32 876 hintmask 00000000
          hintmask 01100000
          157 1375 -41 callgsubr
          hintmask 10100000
          -99 callgsubr
          hintmask 01100000
          -46 callgsubr
        </CharString>
        <CharString name="tilde.cap">
          -393 1603 -28 callgsubr
          32 876 hintmask 00000000
          hintmask 01110000
          157 1634 -41 callgsubr
          hintmask 10010000
          -99 callgsubr
          hintmask 01110000
          -103 -29 130 -162 -26 callgsubr
        </CharString>
        <CharString name="trademark">
          898 1351 191 -166 167 hstemhm
          397 219 hintmask 00000000
          hintmask 10100000
          977 767 rmoveto
          216 hlineto
          17 487 rlineto
          hintmask 01100000
          3 122 51 -154 182 -458 rlineto
          148 hlineto
          168 458 44 153 6 -121 31 -487 rlineto
          216 hlineto
          hintmask 10100000
          -68 776 rlineto
          -337 hlineto
          -107 -341 -26 -136 -33 136 -114 341 rlineto
          -354 hlineto
          -623 -776 rmoveto
          219 585 hlineto
          256 -1 rlineto
          192 -724 vlineto
          1 -192 248 1 rlineto
          endchar
        </CharString>
        <CharString name="two">
          31 0 253 791 248 hstemhm
          143 1066 -398 327 18 callgsubr
          186 hmoveto
          1023 264 hlineto
          -557 -21 rlineto
          hintmask 11010000
          299 185 187 218 249 vvcurveto
          203 -127 194 -362 -240 -177 -114 -85 -81 vhcurveto
          117 -183 rlineto
          69 69 131 65 130 hhcurveto
          148 65 -89 -118 -264 -414 -276 -254 -142 hvcurveto
          endchar
        </CharString>
        <CharString name="two.numr">
          -96 680 231 608 204 hstemhm
          156 890 -346 293 18 callgsubr
          229 680 15 callsubr
          hintmask 11010000
          -61 callgsubr
          endchar
        </CharString>
        <CharString name="twosuperior">
          -96 680 231 608 204 hstemhm
          156 890 -346 293 18 callgsubr
          229 680 15 callsubr
          hintmask 11010000
          -61 callgsubr
          endchar
        </CharString>
        <CharString name="u">
          -31 callgsubr
          -12 callsubr
          366 -30 callsubr
          hintmask 01111000
          162 474 -94 callsubr
          hintmask 10111000
          -82 callgsubr
          endchar
        </CharString>
        <CharString name="uacute">
          -4 5 -35 callsubr
          534 -21 -12 callsubr
          67 555 -256 312 hintmask 00101000
          690 1251 -100 callgsubr
          hintmask 00000000
          -379 -914 -94 callsubr
          hintmask 11010100
          -82 callgsubr
          endchar
        </CharString>
        <CharString name="ubreve">
          -31 callgsubr
          -12 callsubr
          366 -30 callsubr
          hintmask 01111000
          162 474 -94 callsubr
          hintmask 10111000
          3 callgsubr
          513 157 -92 callgsubr
        </CharString>
        <CharString name="ucircumflex">
          -4 5 -35 callsubr
          116 462 -12 callsubr
          -195 792 -231 312 hintmask 00101000
          435 1236 -92 callsubr
          hintmask 00000000
          -117 -851 -94 callsubr
          hintmask 11010100
          -82 callgsubr
          endchar
        </CharString>
        <CharString name="udieresis">
          -4 5 -35 callsubr
          189 353 -12 callsubr
          -217 834 -251 312 hintmask 00101000
          908 1309 rmoveto
          -90 callgsubr
          -485 hmoveto
          -90 callgsubr
          hintmask 00000000
          -261 -835 -94 callsubr
          hintmask 11010100
          -82 callgsubr
          endchar
        </CharString>
        <CharString name="ugrave">
          -31 callgsubr
          534 -21 -12 callsubr
          -235 556 45 -30 callsubr
          hintmask 01101010
          162 474 -94 callsubr
          hintmask 10101010
          -82 callgsubr
          hintmask 00010100
          484 111 -87 callsubr
        </CharString>
        <CharString name="uhungarumlaut">
          -31 callgsubr
          598 -21 -12 callsubr
          -163 987 -458 -30 callsubr
          hintmask 01101010
          162 474 -94 callsubr
          hintmask 10101010
          3 callgsubr
          276 194 -29 callgsubr
          hintmask 00010100
          -15 callgsubr
          endchar
        </CharString>
        <CharString name="umacron">
          -31 callgsubr
          299 206 -12 callsubr
          -95 591 -130 -30 callsubr
          hintmask 01101010
          162 474 -94 callsubr
          hintmask 10101010
          -82 callgsubr
          hintmask 00010100
          217 279 -52 callgsubr
          endchar
        </CharString>
        <CharString name="underscore">
          372 -409 168 hstem
          -35 1772 vstem
          -35 -241 rmoveto
          -168 1772 168 vlineto
          endchar
        </CharString>
        <CharString name="uni015E">
          -123 -464 179 293 -21 25 -21 1309 238 hstemhm
          139 312 87 217 57 320 hintmask 00000000
          hintmask 11011110
          152 74 rmoveto
          49 -30 156 -45 169 -12 10 -29 6 -37 -4 -56 -38 callgsubr
          -46 callsubr
          hintmask 10111110
          3 76 -11 83 -27 53 rrcurveto
          249 32 163 145 240 vvcurveto
          247 -179 109 -239 126 vhcurveto
          -185 98 -78 47 109 vvcurveto
          94 59 62 169 152 106 -50 -47 74 vhcurveto
          52 247 rlineto
          35 -54 -147 53 -192 hhcurveto
          -286 -245 -110 -300 -249 198 -135 180 -89 hvcurveto
          234 -116 61 -44 -107 vvcurveto
          -102 -54 -53 -169 -163 -144 49 47 -85 vhcurveto
          endchar
        </CharString>
        <CharString name="uni015F">
          -464 179 293 -21 27 -21 935 228 hstemhm
          119 298 34 217 -15 307 hintmask 00000000
          hintmask 11011100
          115 72 rmoveto
          53 -35 131 -39 140 -11 10 -29 6 -37 -4 -56 -38 callgsubr
          -46 callsubr
          hintmask 10111100
          3 77 -12 83 -27 54 rrcurveto
          hintmask 10111010
          204 29 124 113 199 vvcurveto
          167 -88 97 -232 79 vhcurveto
          -167 57 -57 33 1 71 rrcurveto
          64 1 57 26 135 hhcurveto
          96 116 -37 -40 44 hvcurveto
          34 240 rlineto
          24 -41 -118 41 -162 hhcurveto
          -264 -195 -112 -216 -1 hvcurveto
          -1 -165 79 -117 209 -69 rrcurveto
          165 -54 82 -48 -66 vvcurveto
          -70 -57 -26 -122 1 vhcurveto
          -146 -148 63 27 -33 hvcurveto
          endchar
        </CharString>
        <CharString name="uni0162">
          -80 -464 179 306 34 callsubr
          hstemhm
          466 320 -256 217 hintmask 00000000
          hintmask 11110000
          332 -1 callgsubr
          80 -12 88 -30 53 rrcurveto
          hintmask 11110000
          78 1278 434 244 -1190 -244 436 -1278 48 hlineto
          12 -30 8 -41 -4 -64 -38 callgsubr
          endchar
        </CharString>
        <CharString name="uni0163">
          -417 -464 179 297 -21 933 216 hstemhm
          211 312 -88 217 hintmask 00000000
          hintmask 11110000
          237 -1 callgsubr
          76 -12 82 -26 54 115 16 92 46 44 39 -38 175 rcurveline
          6 callsubr
          hintmask 11110000
          -70 callgsubr
          -585 vlineto
          -212 60 -105 150 -29 vhcurveto
          hintmask 11101000
          11 -30 7 -38 -4 -60 rrcurveto
          -103 -4 -52 -47 -65 hhcurveto
          hintmask 11110000
          -31 -29 3 11 -17 hvcurveto
          endchar
        </CharString>
        <CharString name="uni01C4">
          -81 callsubr
          hintmask 0101000001000000
          517 1492 -97 callsubr
          endchar
        </CharString>
        <CharString name="uni01C5">
          -80 callsubr
          hintmask 0101000001000000
          -114 410 -81 callgsubr
          endchar
        </CharString>
        <CharString name="uni01C6">
          -79 callgsubr
          hintmask 0101000010000000
          -89 397 -81 callgsubr
          endchar
        </CharString>
        <CharString name="uni01C7">
          588 0 242 1280 20 callgsubr
          893 320 hintmask 11100000
          -8 callsubr
          -42 callsubr
          hintmask 01010000
          922 -1686 -90 callsubr
          endchar
        </CharString>
        <CharString name="uni01C8">
          434 -507 203 304 242 898 -20 187 358 -143 20 callgsubr
          753 18 callsubr
          hintmask 01001100
          -8 callsubr
          -42 callsubr
          hintmask 10100001
          1106 -1521 -91 callgsubr
          hintmask 00010010
          -56 callgsubr
        </CharString>
        <CharString name="uni01C9">
          -14 25 callsubr
          180 312 319 18 callsubr
          hintmask 01001000
          180 -19 callgsubr
          hintmask 10100010
          666 -1661 -91 callgsubr
          hintmask 00010100
          -56 callgsubr
        </CharString>
        <CharString name="uni01CA">
          1088 -62 callsubr
          hstemhm
          32 callgsubr
          467 320 hintmask 11110000
          -55 callgsubr
          hintmask 01001000
          1422 -1686 -90 callsubr
          endchar
        </CharString>
        <CharString name="uni01CB">
          934 11 callgsubr
          187 358 -143 -20 hstemhm
          32 callgsubr
          327 18 callsubr
          hintmask 0100111000000000
          -55 callgsubr
          hintmask 1010000010000000
          1606 -1521 -91 callgsubr
          hintmask 0001000100000000
          -56 callgsubr
        </CharString>
        <CharString name="uni01CC">
          666 11 callgsubr
          39 -20 168 358 -13 callsubr
          392 312 301 18 callsubr
          -16 callgsubr
          hintmask 0101011000000000
          174 hmoveto
          -95 callsubr
          hintmask 0110011000000000
          -24 callgsubr
          hintmask 1010000010000000
          1352 -1139 -91 callgsubr
          hintmask 0000100100000000
          -56 callgsubr
        </CharString>
        <CharString name="uni01CD">
          43 callgsubr
        </CharString>
        <CharString name="uni01CE">
          -57 callsubr
          88 462 42 callsubr
          -197 792 -261 312 hintmask 11101010
          -107 callgsubr
          hintmask 00010100
          89 893 -81 callgsubr
          endchar
        </CharString>
        <CharString name="uni01CF">
          -33 callsubr
          74 384 hstemhm
          -15 754 -538 320 hintmask 11001000
          -63 callsubr
          hintmask 00110000
          52 54 -97 callsubr
          endchar
        </CharString>
        <CharString name="uni01D1">
          -43 callgsubr
          38 384 13 callgsubr
          20 754 -33 -77 callsubr
          hintmask 00101000
          -83 1355 -97 callsubr
          endchar
        </CharString>
        <CharString name="uni01D2">
          43 callgsubr
        </CharString>
        <CharString name="uni01D3">
          -43 callsubr
          74 384 -12 callgsubr
          -74 754 -83 313 hintmask 11010100
          -74 callgsubr
          hintmask 00101000
          508 54 -97 callsubr
          endchar
        </CharString>
        <CharString name="uni01F1">
          -81 callsubr
          endchar
        </CharString>
        <CharString name="uni01F2">
          -80 callsubr
          endchar
        </CharString>
        <CharString name="uni01F3">
          -79 callgsubr
          endchar
        </CharString>
        <CharString name="uni01F4">
          -48 callgsubr
          152 -21 hstemhm
          100 331 228 512 -101 302 hintmask 11101010
          100 753 -105 callgsubr
          hintmask 00010100
          705 791 -102 callsubr
          endchar
        </CharString>
        <CharString name="uni0218">
          -123 -27 callgsubr
          500 249 1067 238 hstemhm
          139 993 -588 -3 callgsubr
          482 -104 callsubr
          hintmask 00000000
          -514 160 -29 callsubr
          hintmask 00111000
          -104 callgsubr
          endchar
        </CharString>
        <CharString name="uni0219">
          -27 callgsubr
          500 7 callgsubr
          38 callsubr
          -503 -3 callgsubr
          395 -104 callsubr
          hintmask 00000000
          -464 158 -20 callsubr
          hintmask 00111000
          -102 callgsubr
          endchar
        </CharString>
        <CharString name="uni021A">
          -80 -28 callsubr
          1278 244 hstemhm
          466 320 -226 -3 callgsubr
          498 -104 callsubr
          hintmask 00111000
          -216 86 rmoveto
          -34 callsubr
        </CharString>
        <CharString name="uni021B">
          -417 -27 callgsubr
          521 -21 940 216 hstemhm
          211 312 -136 -3 callgsubr
          325 -104 callsubr
          hintmask 00000000
          -298 425 -36 callsubr
          hintmask 00111000
          -38 175 rlineto
          6 callsubr
          -70 callgsubr
          vlineto
          endchar
        </CharString>
        <CharString name="uni02c9">
          -629 1767 31 callgsubr
          1767 -52 callgsubr
          endchar
        </CharString>
        <CharString name="uni0394">
          -37 callgsubr
        </CharString>
        <CharString name="uni03A9">
          -66 callgsubr
        </CharString>
        <CharString name="uni03BC">
          -64 callsubr
        </CharString>
        <CharString name="uni1E02">
          22 callsubr
          111 345 hstemhm
          188 315 28 361 62 303 -241 322 hintmask 0000010100000000
          703 -42 callgsubr
          -16 callgsubr
          -515 -1614 rmoveto
          161 hlineto
          hintmask 0110101000000000
          -6 callsubr
          hintmask 1010101001000000
          2 callgsubr
          hintmask 1011001010000000
          -154 1 rlineto
          315 -630 rmoveto
          hintmask 1010101000000000
          4 callsubr
          hintmask 1011001010000000
          -41 -109 2 7 -41 hvcurveto
          hintmask 1010101000000000
          -16 callsubr
        </CharString>
        <CharString name="uni1E03">
          10 -23 216 730 233 151 358 hstemhm
          12 callsubr
          164 379 -105 327 hintmask 11010100
          -51 callsubr
          hintmask 00101000
          345 1075 -99 callsubr
        </CharString>
        <CharString name="uni1E0A">
          -7 callgsubr
          111 345 hstemhm
          188 321 82 361 166 336 hintmask 00001010
          763 1613 -96 callgsubr
          hintmask 00000000
          -575 -1613 rmoveto
          -47 callsubr
          hintmask 01100100
          -70 callsubr
          hintmask 10100101
          -65 callsubr
          hintmask 10010100
          -85 callgsubr
          hintmask 10100101
          -73 -78 4 14 -53 hvcurveto
          endchar
        </CharString>
        <CharString name="uni1E0B">
          9 -16 -10 callgsubr
          151 358 hstemhm
          95 327 -194 379 252 -30 callsubr
          hintmask 01101010
          -86 callgsubr
          hintmask 10101010
          -78 callgsubr
          hintmask 00010100
          -236 1080 -99 callsubr
        </CharString>
        <CharString name="uni1E1E">
          34 callgsubr
          92 345 hstemhm
          188 322 -5 361 hintmask 00010100
          677 -42 callgsubr
          hintmask 11101000
          -489 -1614 rmoveto
          7 callsubr
        </CharString>
        <CharString name="uni1E1F">
          33 callsubr
          -42 358 hstemhm
          129 379 -271 312 hintmask 00011000
          310 1641 -103 callgsubr
          hintmask 11100100
          -73 -1641 -96 callsubr
        </CharString>
        <CharString name="uni1E20">
          -48 callgsubr
          149 206 hstemhm
          100 331 118 591 -70 302 hintmask 11101010
          100 753 -105 callgsubr
          hintmask 00010100
          449 934 -52 callgsubr
          endchar
        </CharString>
        <CharString name="uni1E21">
          -59 callsubr
          264 206 -25 callsubr
          -85 591 -105 -88 callgsubr
          -63 1534 -52 callgsubr
          endchar
        </CharString>
        <CharString name="uni1E40">
          556 6 -21 35 -21 1523 -20 111 345 hstemhm
          70 1746 -1032 361 hintmask 00010100
          956 1613 -96 callgsubr
          hintmask 00000000
          -886 -1614 26 callsubr
          hintmask 01101000
          9 callgsubr
          hintmask 10101000
          -18 callsubr
        </CharString>
        <CharString name="uni1E41">
          717 21 -21 896 264 -20 -20 40 -20 166 358 -13 callsubr
          345 379 -334 312 385 312 -16 callgsubr
          hintmask 1001010110000000
          174 hmoveto
          312 hlineto
          hintmask 1100010110000000
          -55 callsubr
          hintmask 1010010110000000
          -24 callgsubr
          hintmask 0000101000000000
          838 166 -99 callsubr
        </CharString>
        <CharString name="uni1E44">
          290 -8 callgsubr
          188 296 151 361 140 296 hintmask 11010100
          -55 callgsubr
          hintmask 00101000
          619 91 -96 callgsubr
          endchar
        </CharString>
        <CharString name="uni1E45">
          43 callgsubr
        </CharString>
        <CharString name="uni1E56">
          28 callsubr
          112 345 -45 callsubr
          66 361 40 316 hintmask 00001010
          744 -42 callgsubr
          hintmask 00000000
          -556 -1614 rmoveto
          10 callgsubr
          hintmask 11010101
          376 -208 149 -348 vhcurveto
          hintmask 11100101
          27 callsubr
          hintmask 11010101
          -5 callsubr
          hintmask 11100101
          -50 -67 2 6 -49 hvcurveto
          endchar
        </CharString>
        <CharString name="uni1E57">
          28 callgsubr
          186 358 hstemhm
          12 callsubr
          112 379 -53 327 hintmask 00000000
          hintmask 11010101
          13 callsubr
          hintmask 11100101
          -2 callgsubr
          -183 -97 -80 -52 -52 vhcurveto
          hintmask 11010101
          27 callgsubr
          hintmask 11100101
          603 -35 callgsubr
          -246 -2 -112 -138 -148 hhcurveto
          hintmask 11010101
          -69 -66 9 37 -41 hvcurveto
          hintmask 00001010
          293 1057 -99 callsubr
        </CharString>
        <CharString name="uni1E60">
          -10 callsubr
          75 345 hstemhm
          139 993 -658 361 hintmask 00101000
          646 1613 -96 callgsubr
          hintmask 00000000
          -494 -1539 -29 callsubr
          hintmask 11010000
          -104 callgsubr
          endchar
        </CharString>
        <CharString name="uni1E61">
          -16 7 callgsubr
          150 358 38 callsubr
          -841 298 -73 379 -70 307 hintmask 00000000
          hintmask 11010000
          115 72 -20 callsubr
          hintmask 11001010
          -102 callgsubr
          hintmask 00100100
          378 1002 -99 callsubr
        </CharString>
        <CharString name="uni1E6A">
          -80 21 34 callsubr
          91 345 hstemhm
          446 361 -341 320 hintmask 00110000
          618 1613 -96 callgsubr
          hintmask 11001000
          -152 -1613 rmoveto
          -34 callsubr
        </CharString>
        <CharString name="uni1E6B">
          -417 16 callsubr
          336 358 hstemhm
          211 312 -284 379 hintmask 00000000
          hintmask 01101000
          211 339 -36 callsubr
          hintmask 10101000
          -38 175 rlineto
          6 callsubr
          -70 callgsubr
          vlineto
          hintmask 00010100
          209 552 -99 callsubr
        </CharString>
        <CharString name="uni1E8E">
          -89 -8 callgsubr
          461 319 -316 361 hintmask 11010000
          -80 callgsubr
          hintmask 00101000
          175 1078 -96 callgsubr
          endchar
        </CharString>
        <CharString name="uni1E8F">
          -39 callsubr
          186 358 24 callgsubr
          -744 379 hintmask 00000000
          hintmask 11101000
          -101 callsubr
          hintmask 00010100
          479 1541 -99 callsubr
        </CharString>
        <CharString name="uni1E9E">
          187 -23 234 -190 -21 1306 232 hstemhm
          103 340 714 341 hintmask 00000000
          hintmask 01111000
          103 hmoveto
          340 868 hlineto
          293 148 145 257 84 67 -17 -25 43 vhcurveto
          -283 -370 -5 -166 rlineto
          291 112 -81 -190 hvcurveto
          hintmask 10111000
          -174 -126 -72 -114 -103 -93 42 33 -45 vhcurveto
          -87 -229 rlineto
          -40 74 101 -40 214 hhcurveto
          318 202 206 297 283 -223 135 -145 hvcurveto
          253 299 1 245 rlineto
          -102 -168 96 -272 hhcurveto
          -483 -256 -298 -487 hvcurveto
          endchar
        </CharString>
        <CharString name="uni20A6">
          386 21 -21 408 147 415 147 405 -20 hstem
          266 313 596 314 vstem
          266 hmoveto
          313 408 361 hlineto
          240 -408 rlineto
          309 408 165 147 -165 415 194 147 -194 405 -314 -405 -373 hlineto
          -244 405 rlineto
          -292 -405 -178 -147 178 -415 -199 -147 199 hlineto
          270 709 rmoveto
          1 vlineto
          1 -1 rlineto
          594 -562 rmoveto
          -56 107 -185 308 rlineto
          285 -180 hlineto
          23 -235 rlineto
          -619 hmoveto
          162 vlineto
          -27 253 rlineto
          64 hlineto
          68 -127 169 -288 rlineto
          356 -147 rmoveto
          3 hlineto
          1 -9 rlineto
          endchar
        </CharString>
        <CharString name="uni20AA">
          603 0 245 1013 264 hstem
          197 277 131 285 170 277 122 277 vstem
          605 424 rmoveto
          -310 136 -114 244 vhcurveto
          751 -44 callgsubr
          -277 -1277 -341 hlineto
          -194 -34 39 141 hvcurveto
          673 -285 vlineto
          -408 -1098 rmoveto
          277 1258 439 hlineto
          153 -6 -79 -141 hvcurveto
          -643 277 704 vlineto
          313 -73 110 -227 vhcurveto
          -840 hlineto
          endchar
        </CharString>
        <CharString name="uni20B1">
          213 21 -21 418 252 141 107 113 107 152 248 -16 -20 hstemhm
          62 1459 hintmask 00000000
          hintmask 11110110
          209 hmoveto
          366 422 hlineto
          -1 38 48 -3 99 hhcurveto
          336 205 136 257 61 hvcurveto
          159 107 -143 hlineto
          2 22 1 23 24 15 -1 14 15 vvcurveto
          141 107 -152 hlineto
          hintmask 11111010
          293 -51 -209 107 -317 hhcurveto
          hintmask 11110110
          -161 -138 -16 -112 hhcurveto
          -172 -384 -147 -107 147 -113 -147 -107 147 hlineto
          366 327 rmoveto
          hintmask 11111010
          139 vlineto
          53 8 66 4 57 1 133 2 80 -57 38 -97 rrcurveto
          -427 -220 rmoveto
          113 450 vlineto
          1 -15 1 -15 -15 vvcurveto
          -24 -1 -23 -3 -21 vhcurveto
          -448 -239 rmoveto
          132 421 vlineto
          -100 -43 -85 -41 -107 hhcurveto
          -86 -47 4 5 -53 hvcurveto
          endchar
        </CharString>
        <CharString name="uni20B2">
          195 7 -21 29 -21 586 261 689 -20 26 -20 hstemhm
          681 207 -169 168 161 328 hintmask 00000000
          hintmask 01101100
          682 -6 rmoveto
          -2 -252 rlineto
          hintmask 10101011
          207 hlineto
          2 244 289 12 78 84 120 5 rlinecurve
          754 -558 -252 vlineto
          230 -18 rlineto
          -282 vlineto
          -27 -45 -84 -11 -98 hhcurveto
          -238 -136 220 309 297 158 179 264 197 142 -41 -41 75 hvcurveto
          10 303 -96 18 -99 34 -172 7 rlinecurve
          226 -207 vlineto
          hintmask 01110010
          -232 vlineto
          -366 -45 -275 -233 -499 vvcurveto
          hintmask 01101100
          -429 238 -276 366 -54 vhcurveto
          endchar
        </CharString>
        <CharString name="uni20B5">
          138 6 -21 37 -21 1534 -20 hstemhm
          110 1160 hintmask 00000000
          hintmask 01110000
          685 1 rmoveto
          -31 -355 rlineto
          147 hlineto
          hintmask 10110000
          30 339 rlineto
          16 16 -1 17 hhcurveto
          177 117 47 33 76 hvcurveto
          -1 300 rlineto
          -47 -51 -144 -51 -135 hhcurveto
          -22 -20 1 2 -20 hvcurveto
          87 977 166 -5 87 -55 26 -21 rlinecurve
          47 312 -63 15 -83 34 -154 9 rlinecurve
          25 280 rlineto
          -147 hlineto
          -25 -279 rlineto
          -396 -24 -317 -260 -495 vvcurveto
          hintmask 01110000
          -410 201 -277 374 -69 vhcurveto
          28 308 rmoveto
          -153 74 -75 168 228 vvcurveto
          250 123 158 188 46 vhcurveto
          endchar
        </CharString>
        <CharString name="uni20B9">
          144 21 -21 563 196 214 185 183 181 hstem
          183 1201 vstem
          183 564 rmoveto
          44 -5 148 -8 201 12 24 4 rcurveline
          -122 136 120 -445 84 hhcurveto
          373 hlineto
          -164 186 -52 328 -183 130 115 66 82 116 33 147 rrcurveto
          208 185 -195 hlineto
          -5 82 -18 58 -24 43 rrcurveto
          274 181 -1201 -181 367 hlineto
          205 36 -72 -111 6 hvcurveto
          -614 -185 599 hlineto
          -143 -37 -101 -71 -124 hhcurveto
          -174 -120 -2 5 -43 hvcurveto
          endchar
        </CharString>
        <CharString name="uni20BA">
          148 0 256 1282 -20 hstem
          332 333 425 300 vstem
          332 hmoveto
          333 hlineto
          441 284 256 408 hvcurveto
          55 -300 vlineto
          -312 -7 -132 -151 -286 hhcurveto
          415 vlineto
          407 171 rlineto
          167 vlineto
          -407 -171 rlineto
          201 vlineto
          429 183 rlineto
          177 vlineto
          -429 -183 rlineto
          322 -333 -463 vlineto
          -214 -91 rlineto
          -177 vlineto
          214 91 rlineto
          -200 vlineto
          -204 -86 rlineto
          -167 vlineto
          204 86 rlineto
          endchar
        </CharString>
        <CharString name="uni2113">
          57 -27 236 1189 235 hstem
          262 279 391 282 vstem
          -13 174 rmoveto
          249 -123 51 30 50 31 49 31 rlinecurve
          -125 91 125 -45 90 hhcurveto
          377 104 241 160 92 hvcurveto
          -239 92 rlineto
          -134 -59 -102 -123 -132 hhcurveto
          -68 -44 33 47 -28 hvcurveto
          366 281 255 338 377 vvcurveto
          206 -100 142 -192 -464 -196 -645 -386 -90 9 -77 16 -68 vhcurveto
          -107 -78 -105 -67 -88 -48 rrcurveto
          554 404 rmoveto
          380 7 163 440 154 hhcurveto
          56 10 -66 -57 1 hvcurveto
          6 -243 -177 -248 -220 -206 rrcurveto
          endchar
        </CharString>
        <CharString name="uni2215">
          -476 -363 1962 hstem
          -96 1047 vstem
          -96 -363 rmoveto
          272 hlineto
          775 1962 rlineto
          -272 hlineto
          endchar
        </CharString>
        <CharString name="uni2219">
          -689 561 455 hstem
          102 437 vstem
          312 561 rmoveto
          127 102 110 129 -2 hvcurveto
          122 -1 -77 94 -130 hhcurveto
          -126 -104 -111 -127 1 hvcurveto
          -124 1 89 -93 120 hhcurveto
          endchar
        </CharString>
        <CharString name="uogonek">
          -4 -19 callsubr
          500 239 -218 -21 25 -21 1152 -20 -12 callsubr
          366 -30 callsubr
          hintmask 01001111
          162 474 rmoveto
          hintmask 01010111
          -293 49 -197 326 111 138 49 60 84 vhcurveto
          hintmask 01001111
          -51 vlineto
          -33 12 -14 22 -7 vhcurveto
          -100 -60 -105 -103 9 -141 -54 callsubr
          hintmask 10010111
          -57 callgsubr
          -6 86 70 61 90 60 rrcurveto
          45 1156 -27 callsubr
          hintmask 01100111
          -82 callgsubr
          endchar
        </CharString>
        <CharString name="uring">
          -4 5 -35 callsubr
          193 152 276 146 -12 callsubr
          -142 21 callgsubr
          -175 312 hintmask 00110110
          670 1313 -67 callgsubr
          hintmask 00000000
          -511 -991 -94 callsubr
          hintmask 11001001
          -82 callgsubr
          endchar
        </CharString>
        <CharString name="utilde">
          -31 callgsubr
          223 19 callsubr
          162 312 -246 876 -264 -30 callsubr
          hintmask 01100101
          162 474 -94 callsubr
          hintmask 10100101
          3 callgsubr
          191 234 -41 callgsubr
          hintmask 00001010
          -99 callgsubr
          hintmask 00010010
          -46 callgsubr
        </CharString>
        <CharString name="v">
          -139 5 -35 callsubr
          hstem
          17 1157 vstem
          450 -16 rmoveto
          289 hlineto
          435 1156 rlineto
          -330 hlineto
          -174 -560 -70 -278 -72 278 -174 560 rlineto
          -337 hlineto
          endchar
        </CharString>
        <CharString name="w">
          427 5 -35 callsubr
          hstem
          18 1721 vstem
          366 -16 -85 callsubr
        </CharString>
        <CharString name="wacute">
          427 5 -35 callsubr
          539 -21 hstemhm
          18 1721 -988 555 hintmask 00101000
          900 1256 -100 callgsubr
          hintmask 11010000
          -385 -1409 -85 callsubr
        </CharString>
        <CharString name="wcircumflex">
          427 5 -35 callsubr
          121 462 hstemhm
          18 1721 -1250 792 hintmask 00101000
          645 1241 -92 callsubr
          hintmask 11010000
          -123 -1346 -85 callsubr
        </CharString>
        <CharString name="wdieresis">
          427 5 -35 callsubr
          194 353 hstemhm
          18 1721 -1272 834 hintmask 00101000
          1118 1314 rmoveto
          -90 callgsubr
          -485 hmoveto
          -90 callgsubr
          hintmask 11010000
          -267 -1330 -85 callsubr
        </CharString>
        <CharString name="wgrave">
          427 5 -35 callsubr
          539 -21 hstemhm
          18 1721 -1290 556 hintmask 11010000
          366 -16 -83 callgsubr
          hintmask 00101000
          838 116 -87 callsubr
        </CharString>
        <CharString name="won">
          674 14 -21 412 194 170 194 559 -20 hstem
          57 1891 vstem
          57 405 rmoveto
          312 hlineto
          90 -412 rlineto
          328 hlineto
          81 412 rlineto
          263 hlineto
          85 -412 rlineto
          330 hlineto
          89 412 rlineto
          313 194 -270 hlineto
          36 170 rlineto
          234 194 -191 hlineto
          122 559 rlineto
          -275 hlineto
          -96 -559 rlineto
          -246 hlineto
          -120 559 rlineto
          -267 hlineto
          -121 -559 rlineto
          -241 hlineto
          -94 559 rlineto
          -294 hlineto
          122 -559 rlineto
          -190 -194 232 hlineto
          38 -170 rlineto
          -270 hlineto
          916 364 rmoveto
          24 191 26 -191 rlineto
          317 -364 rmoveto
          -37 170 rlineto
          172 hlineto
          -30 -170 rlineto
          -539 hmoveto
          34 170 rlineto
          117 hlineto
          35 -170 rlineto
          -519 hmoveto
          -28 170 rlineto
          167 hlineto
          -36 -170 rlineto
          724 -359 rmoveto
          -27 165 rlineto
          47 hlineto
          -798 -178 rmoveto
          -23 178 rlineto
          46 hlineto
          endchar
        </CharString>
        <CharString name="x">
          -110 37 callgsubr
          36 1163 vstem
          36 hmoveto
          357 hlineto
          184 319 26 54 33 -52 206 -321 rlineto
          357 hlineto
          -413 582 405 558 rlineto
          -352 hlineto
          -188 -296 -31 -61 -35 60 -196 297 rlineto
          -353 hlineto
          401 -563 rlineto
          endchar
        </CharString>
        <CharString name="y">
          -39 callsubr
          24 callgsubr
          hintmask 00000000
          hintmask 11110000
          -101 callsubr
          endchar
        </CharString>
        <CharString name="yacute">
          -39 callsubr
          534 -21 24 callgsubr
          -683 555 hintmask 00000000
          hintmask 11101000
          -101 callsubr
          hintmask 00010100
          508 1486 -100 callgsubr
          endchar
        </CharString>
        <CharString name="ycircumflex">
          -39 callsubr
          116 462 24 callgsubr
          -945 792 hintmask 00000000
          hintmask 11101000
          -101 callsubr
          hintmask 00010100
          253 1471 -34 callgsubr
        </CharString>
        <CharString name="ydieresis">
          -39 callsubr
          189 353 24 callgsubr
          -967 834 hintmask 00000000
          hintmask 11101000
          -101 callsubr
          hintmask 00010100
          726 1544 rmoveto
          -90 callgsubr
          -485 hmoveto
          -90 callgsubr
          endchar
        </CharString>
        <CharString name="yen">
          246 21 -21 269 192 198 192 671 -20 hstem
          644 290 vstem
          286 269 rmoveto
          358 -269 290 269 347 192 -347 198 347 192 -266 hlineto
          422 671 rlineto
          -325 hlineto
          -255 -418 -68 -143 -68 141 -240 420 rlineto
          -323 hlineto
          418 -671 rlineto
          -290 -192 358 -198 -358 hlineto
          endchar
        </CharString>
        <CharString name="ygrave">
          -39 callsubr
          534 -21 24 callgsubr
          -985 556 hintmask 00000000
          hintmask 11101000
          -101 callsubr
          hintmask 00010100
          464 1486 -87 callsubr
        </CharString>
        <CharString name="z">
          -9 callsubr
          hstemhm
          76 969 hintmask 00000000
          hintmask 11010000
          76 83 -53 callgsubr
          hintmask 10110000
          484 745 rlineto
          hintmask 11010000
          -14 callgsubr
        </CharString>
        <CharString name="zacute">
          -9 callsubr
          514 -21 hstemhm
          76 969 -607 555 hintmask 00010100
          587 1251 -100 callgsubr
          hintmask 00000000
          -362 -1305 -23 callgsubr
        </CharString>
        <CharString name="zcaron">
          -9 callsubr
          110 462 hstemhm
          76 969 -836 792 hintmask 00010100
          495 1250 -81 callgsubr
          hintmask 00000000
          -133 -1540 -23 callgsubr
        </CharString>
        <CharString name="zdotaccent">
          -9 callsubr
          166 358 hstemhm
          76 969 -668 379 hintmask 00000000
          hintmask 11001000
          76 83 -53 callgsubr
          hintmask 10101000
          484 745 rlineto
          hintmask 11001000
          -59 callgsubr
          hintmask 00010100
          -14 466 -99 callsubr
        </CharString>
        <CharString name="zero">
          79 -16 217 854 217 hstem
          124 315 531 315 vstem
          124 642 rmoveto
          -342 -4 150 -316 427 hhcurveto
          360 225 266 385 3 hvcurveto
          352 3 -127 285 -439 hhcurveto
          -347 -246 -242 -388 -5 hvcurveto
          581 -441 rmoveto
          -183 5 -83 217 228 vvcurveto
          250 93 157 177 -3 vhcurveto
          183 -2 78 -191 -236 vvcurveto
          -271 -87 -159 -178 5 vhcurveto
          endchar
        </CharString>
      <CharString index="0">
        102 355 rmoveto
        -215 148 -156 224 135 101 56 56 61 vhcurveto
        -8 vlineto
        -99 41 -5 76 vhcurveto
        182 761 hlineto
        331 -146 86 -317 -180 -205 -75 -44 -73 vhcurveto
        69 -200 rlineto
        44 97 156 37 61 hhcurveto
        193 33 -24 -122 hvcurveto
        -72 vlineto
        -144 -187 -10 -56 -126 hvcurveto
        -123 -55 -76 -92 -138 vvcurveto
        322 2 rmoveto
        85 52 29 47 18 vhcurveto
        22 47 113 19 75 hhcurveto
        -272 vlineto
        -27 -21 -86 -36 -70 hhcurveto
        -89 -68 51 111 hvcurveto
        return
      </CharString>
      <CharString index="1">
        312 924 266 216 -266 116 hlineto
        138 65 69 95 78 47 -9 -15 31 vhcurveto
        222 vlineto
        8 -25 -91 14 -86 hhcurveto
        -197 -229 -100 -334 hvcurveto
        -109 vlineto
        -155 -34 rlineto
        -182 155 vlineto
        return
      </CharString>
      <CharString index="2">
        rmoveto
        -466 264 -303 463 325 129 101 5 91 vhcurveto
        730 -535 -237 vlineto
        233 -12 rlineto
        -305 vlineto
        -22 -59 -78 -16 -118 hhcurveto
        -264 -120 245 307 318 164 188 265 222 101 -35 -46 96 hvcurveto
        10 273 rlineto
        26 -134 -65 34 -231 hhcurveto
        -426 -333 -239 -546 hvcurveto
        return
      </CharString>
      <CharString index="3">
        311 212 150 274 247 -179 109 -239 126 hvcurveto
        -185 98 -78 47 109 vvcurveto
        94 59 62 169 152 106 -50 -47 74 vhcurveto
        52 247 rlineto
        35 -54 -147 53 -192 hhcurveto
        -286 -245 -110 -300 -249 198 -135 180 -89 hvcurveto
        234 -116 61 -44 -107 vvcurveto
        -102 -54 -53 -169 -163 -144 49 47 -85 vhcurveto
        return
      </CharString>
      <CharString index="4">
        rmoveto
        106 92 85 103 98 -69 72 -111 -104 -95 -85 -102 -100 79 -71 102 hvcurveto
        return
      </CharString>
      <CharString index="5">
        274 173 115 235 167 -88 97 -232 79 hvcurveto
        -167 57 -57 33 1 71 rrcurveto
        64 1 57 26 135 hhcurveto
        96 116 -37 -40 44 hvcurveto
        34 240 rlineto
        24 -41 -118 41 -162 hhcurveto
        -264 -195 -112 -216 -1 hvcurveto
        -1 -165 79 -117 209 -69 rrcurveto
        165 -54 82 -48 -66 vvcurveto
        -70 -57 -26 -122 1 vhcurveto
        -146 -148 63 27 -33 hvcurveto
        return
      </CharString>
      <CharString index="6">
        rmoveto
        -106 callgsubr
        return
      </CharString>
      <CharString index="7">
        rmoveto
        80 35 267 210 59 137 -214 174 rcurveline
        -102 -166 -126 -147 -113 -106 rrcurveto
        return
      </CharString>
      <CharString index="8">
        114 24 -133 161 hhcurveto
        154 99 97 131 45 hvcurveto
        -126 108 rlineto
        -51 -37 -51 -60 -67 hhcurveto
        return
      </CharString>
      <CharString index="9">
        rmoveto
        -326 177 -246 355 144 136 45 68 70 vhcurveto
        -45 185 rlineto
        -25 -46 -98 -22 -104 hhcurveto
        -162 -124 114 246 7 hvcurveto
        229 6 154 77 131 hhcurveto
        106 64 -15 -29 55 hvcurveto
        39 241 rlineto
        28 -38 -115 30 -143 hhcurveto
        -387 -182 -264 -336 hvcurveto
        return
      </CharString>
      <CharString index="10">
        296 741 hlineto
        -35 363 121 -243 543 -861 rlineto
        319 -44 callgsubr
        -296 -757 hlineto
        29 -366 -115 228 -567 895 rlineto
        -295 hlineto
        return
      </CharString>
      <CharString index="11">
        rmoveto
        106 83 78 103 98 -60 66 -111 -104 -86 -79 -102 -100 70 -64 102 hvcurveto
        return
      </CharString>
      <CharString index="12">
        rmoveto
        107 79 78 104 97 -56 67 -111 -104 -83 -80 -102 -99 67 -65 101 hvcurveto
        -523 hmoveto
        106 80 78 104 97 -57 67 -111 -104 -83 -80 -102 -99 67 -65 102 hvcurveto
        return
      </CharString>
      <CharString index="13">
        -59 callsubr
        -25 callsubr
        401 295 -193 308 -16 callgsubr
        hintmask 1110110000000000
        91 -183 rmoveto
        -215 198 -114 344 -4 vhcurveto
        hintmask 1110100010000000
        310 -4 291 148 270 vvcurveto
        163 -67 182 -372 vhcurveto
        -190 hlineto
        -95 -40 14 66 34 14 35 28 23 hvcurveto
        -4 32 33 -2 35 hhcurveto
        hintmask 1111000100000000
        320 187 129 246 48 -7 43 -13 39 hvcurveto
        189 226 -127 hlineto
        -86 -62 -36 -31 -36 hvcurveto
        hintmask 1110101100000000
        -88 59 -125 26 -148 -2 rrcurveto
        -299 -4 -195 -111 -266 vvcurveto
        -140 90 -115 144 -62 vhcurveto
        -141 -58 -40 -95 -1 -77 -1 -66 25 -72 69 -36 rrcurveto
        hintmask 1110110000000000
        -101 -44 -75 -83 -110 vvcurveto
        hintmask 1110101100000000
        -91 callsubr
        hintmask 1110100010000000
        228 30 -58 -106 -120 -113 -48 -168 hvcurveto
        hintmask 1110101100000000
        -183 -61 107 111 hvcurveto
        return
      </CharString>
      <CharString index="14">
        -110 1 79 -83 107 hhcurveto
        113 91 98 115 -2 hvcurveto
        108 -1 -68 84 -116 hhcurveto
        -112 -93 -99 -113 1 hvcurveto
        return
      </CharString>
      <CharString index="15">
        rmoveto
        225 147 176 211 -8 hvcurveto
        -193 hlineto
        -44 -5 -12 -125 -153 hhcurveto
        -157 -8 124 45 -4 hvcurveto
        -196 hlineto
        -211 -8 136 -176 236 hhcurveto
        endchar
      </CharString>
      <CharString index="16">
        rmoveto
        -229 -41 -76 -120 -34 -65 13 9 -18 vhcurveto
        -201 vlineto
        -10 25 111 -14 39 hhcurveto
        259 156 165 424 hvcurveto
        1058 14 callsubr
        return
      </CharString>
      <CharString index="17">
        104 79 83 102 96 -54 72 -110 -102 -83 -85 -100 -98 65 -70 101 hvcurveto
        return
      </CharString>
      <CharString index="18">
        rmoveto
        236 135 143 203 -8 hvcurveto
        -187 hlineto
        -48 -4 -19 -95 -153 hhcurveto
        -156 -13 95 48 -4 hvcurveto
        -191 hlineto
        -203 -8 124 -143 248 hhcurveto
        return
      </CharString>
</ttFont>
